<?xml version="1.0" encoding="UTF-8" standalone="no"?>
<!-- Generator: Blender, SVG Export for Grease Pencil - v2.0 -->

<svg
   version="1.0"
   x="0px"
   y="0px"
   width="1080.000000px"
   height="1080.000000px"
   viewBox="0 0 1080.000000 1080.000000"
   id="svg1"
   sodipodi:docname="baroque frame.svg"
   inkscape:version="1.4 (86a8ad7, 2024-10-11)"
   xmlns:inkscape="http://www.inkscape.org/namespaces/inkscape"
   xmlns:sodipodi="http://sodipodi.sourceforge.net/DTD/sodipodi-0.dtd"
   xmlns="http://www.w3.org/2000/svg"
   xmlns:svg="http://www.w3.org/2000/svg">
  <defs
     id="defs1" />
  <sodipodi:namedview
     id="namedview1"
     pagecolor="#505050"
     bordercolor="#eeeeee"
     borderopacity="1"
     inkscape:showpageshadow="0"
     inkscape:pageopacity="0"
     inkscape:pagecheckerboard="0"
     inkscape:deskcolor="#505050"
     inkscape:zoom="0.31759259"
     inkscape:cx="755.68513"
     inkscape:cy="242.44898"
     inkscape:window-width="1600"
     inkscape:window-height="930"
     inkscape:window-x="-6"
     inkscape:window-y="-6"
     inkscape:window-maximized="1"
     inkscape:current-layer="blender_object_Stroke" />
  <g
     id="blender_frame_28"
     style="fill:#ffffff;fill-opacity:0.25285482">
    <g
       id="blender_object_Stroke"
       style="fill:#ffffff;fill-opacity:0.25285482">
      <!--Layer: -->
      <g
         id=""
         style="fill:#6d66c8;fill-opacity:1">
        <path
           d="M540.077698,270.875977L540.602722,270.808960L541.104553,270.640747L541.563965,270.377991L541.963318,270.030457L542.287170,269.611877L542.523132,269.138123L542.662231,268.627441L542.698914,268.099365L542.631897,267.574341L542.463684,267.072449L542.200867,266.613037L541.853455,266.213745L541.434814,265.889893L540.960999,265.653870L540.450317,265.514832L539.922302,265.478149L533.141907,265.673401L532.555603,265.755249L532.001282,265.962769L531.505493,266.286194L531.092041,266.709900L530.780945,267.213501L530.587036,267.772766L530.519592,268.360901L530.505676,271.661438L527.620544,271.842896L527.209045,268.838074L527.072449,268.284302L526.822571,267.771667L526.470581,267.322876L526.032166,266.958008L525.526855,266.693481L524.977295,266.540955L524.407959,266.507263L520.867188,266.672852L520.598083,260.440979L520.506287,259.850098L520.286743,259.293823L519.950012,258.799683L519.512878,258.391663L518.996582,258.089905L518.426575,257.909180L517.830688,257.858276L507.896332,258.115540L507.271210,258.205627L506.684113,258.438477L506.167236,258.801270L505.748718,259.274231L505.451569,259.831482L505.291962,260.442505L505.278656,261.073975L506.240417,271.041443L504.875549,271.254944L502.137909,257.434875L501.945984,256.839111L501.621948,256.303589L501.183380,255.857056L500.653717,255.523438L500.061493,255.320801L499.438507,255.259949L498.818298,255.344238L497.544586,255.671082L491.880920,232.187805L491.682770,231.636841L491.370514,231.141602L490.958832,230.725281L490.467133,230.407532L489.918457,230.203308L489.338654,230.122070L488.754944,230.167664L479.598236,231.897644L479.007996,232.081238L478.474976,232.394104L478.027069,232.820068L477.687744,233.336731L477.474884,233.917053L477.399536,234.530518L477.465698,235.145081L482.739960,258.515808L477.822876,260.729736L473.912964,246.615662L473.688049,246.056213L473.344574,245.560425L472.899628,245.153381L472.375427,244.855286L471.798065,244.680847L471.196503,244.638916L470.600586,244.731689L470.040100,244.954285L461.682861,249.412720L461.169891,249.768066L460.752258,250.231628L460.452209,250.778809L460.285736,251.380188L460.261780,252.003784L460.381653,252.616150L469.049744,279.763794L468.677521,279.927185L449.950348,231.739258L449.683044,231.223877L449.311798,230.777466L448.853729,230.420837L448.329987,230.170410L447.764832,230.037659L447.184357,230.028809L446.615387,230.144287L446.084290,230.378662L437.654419,235.242859L437.132507,235.635132L436.720032,236.141357L436.441101,236.731567L436.312012,237.371643L436.340332,238.023926L436.524445,238.650330L447.905182,265.050293L448.301086,264.843018L430.270203,227.979248L429.925171,227.444519L429.464600,227.005432L428.914032,226.686340L428.304077,226.504944L427.668610,226.471313L427.042938,226.587402L426.461761,226.846619L419.307281,231.113586L398.997742,198.858582L398.643372,198.409607L398.202393,198.045227L397.694611,197.781982L397.142700,197.631653L396.571533,197.600952L396.006714,197.691223L395.473572,197.898499L389.144867,201.168335L388.672882,201.478760L388.275757,201.880554L387.971008,202.356262L387.771851,202.884949L387.687073,203.443420L387.720367,204.007385L387.870300,204.552063L388.130280,205.053589L414.071991,244.390137L410.815369,246.804565L388.091919,218.200378L387.659698,217.767639L387.141205,217.443298L386.562988,217.243958L385.954712,217.179932L385.347687,217.254456L384.772949,217.463562L384.260071,217.796692L377.665985,223.234253L377.236420,223.680603L376.919891,224.213074L376.733032,224.803650L376.685730,225.421265L376.780426,226.033447L377.012085,226.607910L377.368652,227.114502L393.274811,244.950073L390.103699,248.680725L389.781952,249.152527L389.566589,249.681335L389.467316,250.243652L389.488464,250.814331L389.629211,251.367737L389.883148,251.879150L390.238983,252.325684L411.836304,274.214600L412.563324,273.346436L375.689270,241.766785L375.199829,241.433105L374.649475,241.214233L374.064575,241.120605L373.473358,241.156860L372.904327,241.321045L372.384735,241.605408L371.939667,241.996216L368.098999,246.199829L367.735474,246.703613L367.496765,247.277283L367.395477,247.890198L367.436951,248.510071L367.619049,249.104126L367.932068,249.640747L368.359467,250.091675L373.978516,254.794006L373.474609,255.336609L345.266937,234.496582L344.757080,234.199951L344.195007,234.021179L343.607574,233.968689L343.022675,234.045105L342.468384,234.246582L341.971039,234.563660L341.554413,234.981140L336.306702,241.538757L335.969666,242.080566L335.769196,242.686401L335.716492,243.322388L335.814575,243.952942L336.057861,244.542908L336.432831,245.059204L336.918488,245.473145L376.027374,271.510803L373.349091,275.369263L373.050171,275.931641L372.891266,276.548401L372.881256,277.185181L373.020691,277.806641L373.301819,278.378052L373.708984,278.867859L374.219513,279.248596L397.517456,292.667175L397.075195,293.461426L380.877075,286.587097L380.280273,286.411682L379.659180,286.377563L379.046722,286.486328L378.475433,286.732422L377.975616,287.102844L377.573853,287.577759L377.291412,288.131958L376.289551,290.827576L361.938568,285.076355L361.344055,284.913879L360.728180,284.890503L360.122986,285.007324L359.560120,285.258362L359.068817,285.630554L358.674713,286.104431L358.398376,286.655334L357.461334,289.218201L346.478943,285.785217L345.880096,285.670166L345.270660,285.692444L344.681763,285.850952L344.143494,286.137512L343.683197,286.537659L343.324554,287.030823L343.085632,287.591919L341.225403,293.841187L341.118927,294.435608L341.147186,295.038818L341.308807,295.620544L341.595734,296.151917L341.993561,296.606262L342.482361,296.960754L343.037750,297.197693L358.922546,301.960205L358.560333,302.757690L318.725830,294.035583L318.155579,293.973083L317.585022,294.032471L317.039856,294.211060L316.544800,294.500793L316.122040,294.888672L315.790802,295.356995L315.565979,295.884766L314.618652,298.987915L285.588867,293.308899L284.960541,293.260925L284.338165,293.359863L283.755768,293.600464L283.244934,293.969360L282.833527,294.446716L282.543976,295.006470L282.392090,295.618042L281.421051,303.253235L281.411285,303.846008L281.531128,304.426697L281.774811,304.967163L282.130585,305.441406L282.581268,305.826599L283.105194,306.104126L283.677032,306.260620L334.969940,314.385742L334.953003,314.461487L321.656128,313.243713L321.068024,313.254150L320.496155,313.391724L319.967651,313.649963L319.507629,314.016418L319.137787,314.473755L318.875854,315.000366L318.734131,315.571228L318.263550,319.057373L289.906647,316.909119L289.270844,316.936157L288.658966,317.111267L288.105133,317.424744L287.640045,317.859192L287.289520,318.390320L287.073120,318.988831L287.002777,319.621277L287.017517,321.617859L207.976242,321.617859L205.748077,321.618225L203.516006,321.622375L201.275238,321.639343L199.023605,321.682312L196.762756,321.767029L194.496307,321.911194L192.231308,322.133179L189.976578,322.451111L187.743256,322.882202L185.544266,323.442017L183.393967,324.143860L181.308029,324.998474L179.303223,326.012878L177.396591,327.190613L175.604980,328.531189L173.944000,330.029358L172.427155,331.676575L171.064987,333.460083L169.864075,335.364929L168.826736,337.373779L167.950806,339.469177L167.230209,341.633545L166.654861,343.849976L166.211548,346.103027L165.884521,348.379028L165.656357,350.666077L165.508194,352.954285L165.421265,355.236023L165.377396,357.506592L165.359985,359.762878L165.355774,362.005737L165.355423,364.238342L165.355423,715.761292L165.355743,717.989502L165.359924,720.221497L165.376984,722.462402L165.419846,724.713745L165.504608,726.974854L165.648804,729.241211L165.870758,731.506226L166.188660,733.760986L166.619766,735.994263L167.179550,738.193359L167.881424,740.343628L168.736099,742.429565L169.750488,744.434326L170.928192,746.340942L172.268692,748.132629L173.767014,749.793640L175.414276,751.310425L177.197693,752.672546L179.102493,753.873535L181.111420,754.910889L183.206818,755.786743L185.371185,756.507324L187.587601,757.082642L189.840591,757.526001L192.116653,757.853027L194.403687,758.081238L196.691818,758.229370L198.973709,758.316284L201.244019,758.360229L203.500549,758.377563L205.743408,758.381775L207.975845,758.382080L540.000000,758.382080L872.023804,758.382080L874.251953,758.381775L876.484009,758.377625L878.724792,758.360596L880.976379,758.317627L883.237244,758.232971L885.503662,758.088745L887.768738,757.866821L890.023438,757.548950L892.256714,757.117737L894.455750,756.557983L896.606018,755.856079L898.692017,755.001465L900.696777,753.987183L902.603455,752.809326L904.395020,751.468872L906.056030,749.970642L907.572876,748.323425L908.934998,746.539795L910.135986,744.635071L911.173218,742.626099L912.049133,740.530762L912.769775,738.366394L913.345154,736.149963L913.788452,733.896912L914.115540,731.620972L914.343628,729.333862L914.491821,727.045715L914.578735,724.763916L914.622620,722.493408L914.640015,720.237061L914.644287,717.994141L914.644531,715.761658L914.644531,364.238647L914.644287,362.010498L914.640076,359.778442L914.622986,357.537598L914.580139,355.286133L914.495483,353.025085L914.351196,350.758728L914.129272,348.493713L913.811340,346.238953L913.380188,344.005676L912.820435,341.806702L912.118591,339.656372L911.263977,337.570374L910.249512,335.565552L909.071838,333.658997L907.731323,331.867310L906.233032,330.206360L904.585693,328.689514L902.802307,327.327393L900.897522,326.126404L898.888550,325.089111L896.793091,324.213257L894.628845,323.492676L892.412354,322.917297L890.159363,322.473999L887.883362,322.146973L885.596375,321.918762L883.308228,321.770630L881.026245,321.683716L878.755981,321.639771L876.499451,321.622437L874.256592,321.618225L872.024170,321.617859L792.982483,321.617859L792.997253,319.621277L792.926880,318.988831L792.710449,318.390320L792.359985,317.859192L791.894836,317.424744L791.341064,317.111267L790.729187,316.936157L790.093384,316.909119L761.736450,319.057373L761.265869,315.571228L761.124146,315.000366L760.862183,314.473755L760.492432,314.016418L760.032410,313.649963L759.503906,313.391724L758.932007,313.254150L758.343872,313.243713L745.046997,314.461487L745.030029,314.385742L796.322937,306.260620L796.894775,306.104126L797.418701,305.826599L797.869385,305.441406L798.225220,304.967163L798.468872,304.426697L798.588745,303.846008L798.578918,303.253235L797.607910,295.618042L797.456055,295.006470L797.166443,294.446716L796.755127,293.969360L796.244263,293.600464L795.661804,293.359863L795.039429,293.260925L794.411072,293.308899L765.381409,298.987915L764.434021,295.884766L764.209106,295.356995L763.877930,294.888672L763.455200,294.500793L762.960083,294.211060L762.414917,294.032471L761.844421,293.973083L761.274170,294.035583L721.439636,302.757690L721.077454,301.960205L736.962219,297.197754L737.517639,296.960754L738.006470,296.606262L738.404297,296.151917L738.691162,295.620544L738.852783,295.038818L738.881042,294.435608L738.774658,293.841187L736.914368,287.591919L736.675476,287.030823L736.316772,286.537659L735.856506,286.137512L735.318237,285.850952L734.729370,285.692444L734.119934,285.670166L733.521057,285.785217L722.538696,289.218201L721.601624,286.655334L721.325256,286.104431L720.931152,285.630554L720.439880,285.258362L719.876953,285.007324L719.271851,284.890503L718.656006,284.913879L718.061462,285.076355L703.710388,290.827576L702.708618,288.131958L702.426147,287.577759L702.024414,287.102844L701.524597,286.732422L700.953247,286.486328L700.340820,286.377563L699.719788,286.411682L699.122864,286.587097L682.924866,293.461426L682.482544,292.667175L705.780457,279.248596L706.291016,278.867859L706.698181,278.378052L706.979248,277.806641L707.118713,277.185181L707.108765,276.548401L706.949890,275.931641L706.650940,275.369263L703.972656,271.510803L743.081543,245.473145L743.567200,245.059204L743.942139,244.542908L744.185425,243.952942L744.283447,243.322388L744.230774,242.686401L744.030396,242.080566L743.693237,241.538757L738.445557,234.981140L738.028992,234.563660L737.531616,234.246582L736.977295,234.045105L736.392456,233.968689L735.804932,234.021179L735.242920,234.199951L734.733093,234.496582L706.525391,255.336609L706.021484,254.794006L711.640442,250.091675L712.067932,249.640747L712.380981,249.104126L712.563110,248.510071L712.604553,247.890198L712.503174,247.277283L712.264465,246.703613L711.901001,246.199829L708.060303,241.996216L707.615234,241.605408L707.095703,241.321106L706.526611,241.156860L705.935425,241.120605L705.350586,241.214233L704.800232,241.433105L704.310730,241.766785L667.436707,273.346436L668.163635,274.214600L689.760986,252.325684L690.116821,251.879150L690.370789,251.367737L690.511475,250.814331L690.532715,250.243652L690.433350,249.681335L690.218018,249.152527L689.896301,248.680725L686.725159,244.950073L702.631348,227.114502L702.987915,226.607910L703.219604,226.033447L703.314270,225.421265L703.266907,224.803650L703.080139,224.213074L702.763550,223.680603L702.334106,223.234253L695.739929,217.796692L695.227051,217.463562L694.652344,217.254456L694.045227,217.179932L693.437012,217.243958L692.858826,217.443298L692.340271,217.767639L691.908081,218.200378L669.184570,246.804565L665.927979,244.390137L691.869751,205.053589L692.129700,204.552063L692.279663,204.007385L692.312927,203.443420L692.228149,202.884949L692.028992,202.356262L691.724243,201.880554L691.327087,201.478760L690.855164,201.168335L684.526428,197.898499L683.993286,197.691223L683.428528,197.600952L682.857300,197.631653L682.305481,197.781982L681.797607,198.045227L681.356567,198.409607L681.002258,198.858582L660.692749,231.113586L653.538208,226.846619L652.957092,226.587402L652.331421,226.471313L651.695923,226.504944L651.085938,226.686340L650.535400,227.005432L650.074829,227.444519L649.729797,227.979248L631.698914,264.843018L632.094788,265.050293L643.475525,238.650330L643.659607,238.023926L643.687988,237.371643L643.558838,236.731567L643.279968,236.141357L642.867432,235.635132L642.345520,235.242859L633.915710,230.378662L633.384644,230.144287L632.815674,230.028809L632.235168,230.037659L631.669983,230.170410L631.146301,230.420837L630.688171,230.777466L630.316956,231.223877L630.049683,231.739258L611.322571,279.927185L610.950256,279.763794L619.618408,252.616150L619.738220,252.003784L619.714294,251.380188L619.547791,250.778809L619.247742,250.231628L618.830139,249.768066L618.317200,249.412720L609.959839,244.954285L609.399414,244.731689L608.803589,244.638916L608.201904,244.680847L607.624634,244.855286L607.100403,245.153381L606.655396,245.560425L606.311951,246.056213L606.086975,246.615662L602.177124,260.729736L597.260071,258.515808L602.534302,235.145081L602.600403,234.530518L602.525146,233.917053L602.312195,233.336731L601.972900,232.820068L601.525024,232.394104L600.992004,232.081238L600.401794,231.897644L591.245056,230.167664L590.661316,230.122070L590.081543,230.203308L589.532837,230.407532L589.041138,230.725281L588.629517,231.141602L588.317261,231.636841L588.119080,232.187805L582.455383,255.671082L581.181702,255.344238L580.561462,255.259949L579.938538,255.320801L579.346313,255.523438L578.816650,255.857056L578.378052,256.303589L578.054016,256.839111L577.862061,257.434875L575.124512,271.254944L573.759521,271.041443L574.721313,261.073975L574.708069,260.442505L574.548462,259.831482L574.251282,259.274231L573.832764,258.801270L573.315857,258.438477L572.728821,258.205627L572.103760,258.115540L562.169250,257.858276L561.573425,257.909180L561.003418,258.089905L560.487061,258.391663L560.049988,258.799683L559.713257,259.293823L559.493713,259.850098L559.401917,260.440979L559.132874,266.672852L555.592041,266.507263L555.022766,266.540955L554.473145,266.693481L553.967896,266.958008L553.529419,267.322876L553.177429,267.771606L552.927551,268.284302L552.790955,268.838074L552.379456,271.842896L549.494385,271.661438L549.480408,268.360901L549.412964,267.772766L549.219055,267.213501L548.907959,266.709900L548.494507,266.286194L547.998718,265.962769L547.444397,265.755249L546.858093,265.673401L540.077698,265.478149L539.549683,265.514832L539.039001,265.653870L538.565186,265.889893L538.146545,266.213745L537.799133,266.613037L537.536316,267.072449L537.368103,267.574341L537.301086,268.099365L537.337830,268.627441L537.476868,269.138123L537.712769,269.611877L538.036682,270.030457L538.436035,270.377991L538.895386,270.640747L539.397278,270.808960L539.922302,270.875977L544.091492,270.995911L544.105042,274.209045L544.169556,274.784424L544.355225,275.332703L544.653503,275.828857L545.050720,276.250000L545.528564,276.576843L546.065125,276.794250L546.635620,276.892273L554.544739,277.389648L555.120605,277.364197L555.678101,277.217041L556.191528,276.954895L556.637695,276.589722L556.996094,276.138184L557.250488,275.620789L557.389221,275.061279L557.806091,272.016663L561.587341,272.193481L562.192017,272.153625L562.772583,271.979980L563.299805,271.681274L563.747131,271.272461L564.091980,270.774109L564.317078,270.211487L564.410950,269.612854L564.682434,263.325256L569.068115,263.438782L568.140076,273.056274L568.146912,273.638245L568.278381,274.205139L568.528198,274.730774L568.884888,275.190674L569.331909,275.563416L569.848267,275.831726L570.410278,275.983154L576.851807,276.990906L577.440308,277.017883L578.020691,276.916626L578.565247,276.691772L579.048096,276.354370L579.446289,275.920105L579.740784,275.409851L579.917664,274.847961L582.604492,261.284241L583.766785,261.582520L584.371155,261.666382L584.978943,261.612427L585.559082,261.423401L586.082031,261.108887L586.520935,260.684998L586.853455,260.173462L587.062622,259.600281L592.766418,235.950684L596.651123,236.684509L591.507141,259.478027L591.440918,260.089478L591.514832,260.700012L591.725037,261.278015L592.060486,261.793457L592.503967,262.219604L593.032410,262.534302L602.830322,266.945862L603.382263,267.126038L603.959961,267.183899L604.536682,267.116943L605.085754,266.928223L605.581848,266.626526L606.001892,266.225647L606.326538,265.744446L606.540833,265.204773L610.391357,251.304932L613.789612,253.117798L605.066589,280.437439L604.944336,281.084045L604.982117,281.741089L605.177795,282.369507L605.519653,282.931885L605.987427,283.394836L606.553223,283.730835L611.732666,286.004761L612.326294,286.187378L612.946045,286.229614L613.558960,286.128967L614.132629,285.890991L614.636719,285.528198L615.044678,285.059753L615.334717,284.510620L633.942871,236.628845L637.565491,238.719238L626.144714,265.212036L625.974365,265.762085L625.924683,266.335632L625.997620,266.906738L626.190063,267.449341L626.493103,267.938843L626.893066,268.352966L627.371826,268.672913L631.652649,270.914124L632.226562,271.135498L632.835693,271.221313L633.448364,271.166870L634.032898,270.975220L634.558899,270.656372L634.998962,270.226624L635.330444,269.708435L653.291687,232.987122L660.190247,237.101379L660.732056,237.348022L661.314819,237.470032L661.910095,237.461365L662.489014,237.322449L663.023376,237.059937L663.487244,236.686768L663.858032,236.221069L684.250671,203.834167L685.708618,204.587463L660.013123,243.550476L659.746338,244.069519L659.597351,244.633789L659.573059,245.216736L659.674622,245.791382L659.897217,246.330811L660.230591,246.809814L660.658997,247.205933L668.066345,252.697693L668.577515,252.995911L669.141357,253.175598L669.730774,253.228149L670.317627,253.151001L670.873535,252.947815L671.371704,252.628479L671.788452,252.208191L694.425842,223.712280L696.733154,225.614868L681.130371,243.110413L680.762390,243.638062L680.529785,244.237732L680.445618,244.875366L680.514587,245.514954L680.732910,246.119873L681.088196,246.656189L684.180054,250.293640L662.595398,272.169556L662.191406,272.694641L661.927612,273.302368L661.819519,273.955933L661.874023,274.616150L662.087524,275.243225L662.447388,275.799438L665.049561,278.906555L665.490601,279.326294L666.014404,279.636475L666.594482,279.821411L667.201294,279.871765L667.803894,279.784790L668.371643,279.565063L668.875793,279.223694L705.837341,247.568970L706.012207,247.760254L700.375488,252.477417L699.946228,252.930847L699.632507,253.470703L699.451233,254.068176L699.412109,254.691345L699.517090,255.306824L699.760681,255.881836L700.129883,256.385376L704.210632,260.779419L704.711121,261.201599L705.298523,261.490967L705.938232,261.630432L706.592712,261.611694L707.223511,261.436035L707.793457,261.113708L735.852539,240.383423L737.635559,242.611572L698.688538,268.541565L698.220764,268.936279L697.853943,269.426208L697.606995,269.986206L697.492371,270.587463L697.516174,271.198975L697.677063,271.789490L697.966797,272.328613L700.539795,276.035339L677.481384,289.315979L676.998657,289.670776L676.605957,290.123169L676.322815,290.651123L676.162964,291.228394L676.134399,291.826843L676.238403,292.416748L676.470032,292.969238L679.387268,298.208191L679.774536,298.739258L680.278503,299.160950L680.869507,299.448425L681.512512,299.584595L682.169250,299.561340L682.800964,299.380188L698.631287,292.661987L699.613464,295.304626L699.891663,295.852356L700.286377,296.323059L700.777283,296.692383L701.338989,296.941101L701.942322,297.056458L702.556152,297.032349L703.148682,296.870300L717.486023,291.124451L718.351135,293.490479L718.611145,294.015991L718.978394,294.473083L719.435791,294.840088L719.961548,295.099670L720.530945,295.239685L721.117188,295.253418L721.692505,295.140320L732.519714,291.755920L732.830261,292.799133L716.565369,297.675476L716.035583,297.898193L715.564941,298.227844L715.174805,298.649719L714.882690,299.144592L714.701965,299.690063L714.640747,300.261353L714.701782,300.832703L714.882385,301.378235L717.425842,306.978699L717.739624,307.502686L718.163147,307.942566L718.674744,308.276123L719.248230,308.486267L719.854126,308.562073L720.461670,308.499756L759.996460,299.843262L760.927612,302.893555L761.195374,303.495483L761.601013,304.014587L762.120300,304.420105L762.722290,304.687744L763.371155,304.801636L764.028381,304.755005L792.615234,299.162598L792.891724,301.336792L741.345459,309.502136L740.740173,309.671997L740.190674,309.977417L739.726624,310.401550L739.373291,310.921509L739.149719,311.509094L739.068115,312.132507L739.132874,312.757812L740.294800,317.955688L740.510742,318.566101L740.865784,319.107422L741.339600,319.548767L741.904663,319.864624L742.528809,320.036804L743.175964,320.055481L756.260437,318.857117L756.725708,322.303284L756.865295,322.868408L757.122864,323.390503L757.486328,323.845215L757.938782,324.211548L758.459229,324.472290L759.023499,324.615479L759.605347,324.634338L787.575684,322.515259L787.562561,324.297974L787.626465,324.902039L787.823792,325.476501L788.144470,325.992432L788.572449,326.423523L789.085938,326.748047L789.658875,326.949585L790.262512,327.017883L872.023499,327.017883L874.248840,327.018188L876.466187,327.022400L878.668091,327.039062L880.847961,327.080688L882.998474,327.161621L885.112244,327.296814L887.180847,327.500793L889.195557,327.786804L891.146912,328.166321L893.025696,328.648438L894.822632,329.239868L896.529297,329.945312L898.138550,330.767090L899.644409,331.706116L901.042053,332.762207L902.328308,333.934204L903.500305,335.220276L904.556335,336.617981L905.495300,338.123779L906.317139,339.733093L907.022583,341.439819L907.614014,343.236633L908.096069,345.115417L908.475647,347.066895L908.761658,349.081482L908.965637,351.150208L909.100830,353.263916L909.181763,355.414429L909.223389,357.594299L909.240112,359.796326L909.244263,362.013550L909.244507,364.238831L909.244507,715.761108L909.244263,717.986389L909.240112,720.203613L909.223389,722.405640L909.181763,724.585571L909.100830,726.736023L908.965637,728.849792L908.761658,730.918457L908.475647,732.933105L908.096069,734.884521L907.614014,736.763306L907.022583,738.560181L906.317139,740.266846L905.495300,741.876160L904.556335,743.381958L903.500305,744.779663L902.328186,746.065735L901.042053,747.237793L899.644409,748.293884L898.138550,749.232910L896.529297,750.054688L894.822632,750.760132L893.025696,751.351562L891.146912,751.833618L889.195557,752.213135L887.180847,752.499146L885.112183,752.703125L882.998474,752.838379L880.847961,752.919250L878.668091,752.960938L876.466187,752.977661L874.248840,752.981812L872.023499,752.982117L540.000000,752.982117L207.976425,752.982117L205.751160,752.981812L203.533829,752.977661L201.331879,752.960938L199.152023,752.919250L197.001511,752.838379L194.887833,752.703125L192.819122,752.499146L190.804459,752.213135L188.853073,751.833618L186.974319,751.351562L185.177414,750.760132L183.470657,750.054688L181.861420,749.232910L180.355621,748.293884L178.957962,747.237793L177.671768,746.065735L176.499771,744.779663L175.443710,743.381958L174.504700,741.876160L173.682846,740.266846L172.977432,738.560181L172.385971,736.763306L171.903931,734.884521L171.524384,732.933105L171.238342,730.918457L171.034378,728.849792L170.899185,726.736023L170.818237,724.585571L170.776657,722.405640L170.759888,720.203613L170.755768,717.986389L170.755478,715.761108L170.755478,364.238831L170.755768,362.013550L170.759888,359.796326L170.776657,357.594299L170.818237,355.414429L170.899185,353.263916L171.034378,351.150208L171.238342,349.081482L171.524384,347.066895L171.903900,345.115417L172.385971,343.236633L172.977432,341.439819L173.682846,339.733093L174.504700,338.123779L175.443710,336.617981L176.499771,335.220276L177.671738,333.934204L178.957962,332.762207L180.355621,331.706116L181.861420,330.767090L183.470657,329.945312L185.177414,329.239868L186.974319,328.648438L188.853073,328.166321L190.804459,327.786804L192.819122,327.500793L194.887802,327.296814L197.001511,327.161621L199.152023,327.080688L201.331879,327.039062L203.533829,327.022400L205.751160,327.018188L207.976425,327.017883L289.737488,327.017883L290.341064,326.949585L290.914062,326.748047L291.427582,326.423523L291.855499,325.992432L292.176239,325.476501L292.373535,324.902039L292.437408,324.297974L292.424255,322.515259L320.394623,324.634338L320.976471,324.615479L321.540771,324.472290L322.061249,324.211548L322.513763,323.845215L322.877197,323.390503L323.134705,322.868408L323.274323,322.303284L323.739563,318.857117L336.824005,320.055481L337.471161,320.036804L338.095276,319.864624L338.660461,319.548767L339.134186,319.107422L339.489258,318.566101L339.705231,317.955688L340.867096,312.757812L340.931854,312.132507L340.850250,311.509094L340.626740,310.921509L340.273376,310.401550L339.809326,309.977417L339.259796,309.671997L338.654541,309.502136L287.108307,301.336792L287.384766,299.162598L315.971680,304.755005L316.628815,304.801575L317.277740,304.687744L317.879730,304.420105L318.398987,304.014587L318.804596,303.495483L319.072388,302.893555L320.003540,299.843262L359.538300,308.499756L360.145874,308.562073L360.751801,308.486267L361.325287,308.276123L361.836853,307.942566L362.260376,307.502686L362.574158,306.978699L365.117615,301.378235L365.298218,300.832703L365.359314,300.261353L365.298096,299.690063L365.117310,299.144592L364.825195,298.649719L364.434998,298.227905L363.964386,297.898254L363.434662,297.675476L347.169739,292.799133L347.480286,291.755920L358.307465,295.140320L358.882843,295.253418L359.469025,295.239685L360.038483,295.099670L360.564240,294.840088L361.021545,294.473083L361.388885,294.015991L361.648834,293.490479L362.513977,291.124451L376.851288,296.870300L377.443817,297.032349L378.057648,297.056458L378.661041,296.941101L379.222748,296.692383L379.713684,296.323059L380.108429,295.852356L380.386505,295.304626L381.368744,292.661987L397.199005,299.380188L397.830750,299.561340L398.487549,299.584595L399.130493,299.448425L399.721497,299.160950L400.225525,298.739258L400.612732,298.208191L403.529999,292.969238L403.761566,292.416748L403.865631,291.826843L403.837036,291.228394L403.677216,290.651123L403.393982,290.123169L403.001343,289.670776L402.518585,289.315979L379.460205,276.035339L382.033203,272.328613L382.322937,271.789490L382.483856,271.198975L382.507629,270.587463L382.393005,269.986206L382.145996,269.426208L381.779205,268.936279L381.311462,268.541565L342.364380,242.611572L344.147461,240.383423L372.206543,261.113708L372.776489,261.436035L373.407227,261.611694L374.061768,261.630432L374.701508,261.490967L375.288910,261.201599L375.789368,260.779419L379.870148,256.385376L380.239258,255.881836L380.482880,255.306824L380.587860,254.691345L380.548737,254.068176L380.367462,253.470703L380.053772,252.930847L379.624512,252.477417L373.987793,247.760254L374.162628,247.568970L411.124176,279.223694L411.628326,279.565063L412.196136,279.784790L412.798737,279.871765L413.405457,279.821411L413.985565,279.636475L414.509430,279.326294L414.950470,278.906555L417.552612,275.799438L417.912445,275.243347L418.126007,274.616150L418.180450,273.955933L418.072418,273.302368L417.808533,272.694641L417.404602,272.169556L395.819977,250.293640L398.911835,246.656189L399.267059,246.119873L399.485382,245.514954L399.554443,244.875366L399.470215,244.237732L399.237549,243.638062L398.869659,243.110413L383.266846,225.614868L385.574127,223.712280L408.211578,252.208191L408.628235,252.628479L409.126495,252.947815L409.682343,253.151001L410.269135,253.228149L410.858643,253.175598L411.422516,252.995911L411.933685,252.697693L419.340942,247.205933L419.769440,246.809814L420.102753,246.330811L420.325378,245.791382L420.426910,245.216736L420.402649,244.633789L420.253632,244.069519L419.986877,243.550476L394.291412,204.587463L395.749359,203.834167L416.141937,236.221069L416.512787,236.686768L416.976654,237.059937L417.511047,237.322449L418.089935,237.461365L418.685211,237.470032L419.267944,237.348022L419.809753,237.101379L426.708282,232.987122L444.669556,269.708435L445.001007,270.226562L445.441132,270.656372L445.967072,270.975220L446.551575,271.166870L447.164307,271.221313L447.773407,271.135498L448.347290,270.914124L452.628204,268.672913L453.106934,268.352966L453.506866,267.938904L453.809967,267.449341L454.002380,266.906738L454.075348,266.335632L454.025574,265.762024L453.855316,265.212036L442.434479,238.719238L446.057129,236.628845L464.665283,284.510620L464.955353,285.059814L465.363251,285.528198L465.867401,285.890991L466.441101,286.128967L467.053986,286.229614L467.673676,286.187500L468.267303,286.004761L473.446716,283.730835L474.012573,283.394836L474.480347,282.931885L474.822205,282.369507L475.017853,281.741089L475.055664,281.084045L474.933380,280.437439L466.210358,253.117798L469.608612,251.304932L473.459198,265.204773L473.673462,265.744446L473.998108,266.225708L474.418213,266.626526L474.914215,266.928223L475.463287,267.116943L476.040009,267.183899L476.617706,267.126038L477.169708,266.945862L486.967621,262.534302L487.496033,262.219604L487.939484,261.793457L488.274963,261.278015L488.485168,260.700012L488.559052,260.089478L488.492859,259.478027L483.348907,236.684509L487.233612,235.950684L492.937378,259.600281L493.146606,260.173462L493.479095,260.684998L493.918060,261.108887L494.440887,261.423401L495.021057,261.612427L495.628815,261.666382L496.233185,261.582520L497.395508,261.284241L500.082367,274.847961L500.259216,275.409851L500.553711,275.920105L500.951843,276.354370L501.434753,276.691772L501.979340,276.916626L502.559723,277.017883L503.148224,276.990906L509.589752,275.983154L510.151672,275.831726L510.668182,275.563416L511.115112,275.190674L511.471802,274.730774L511.721619,274.205139L511.853088,273.638245L511.859955,273.056274L510.931915,263.438782L515.317566,263.325256L515.589050,269.612854L515.682922,270.211487L515.908020,270.774109L516.252869,271.272461L516.700195,271.681274L517.227417,271.979980L517.807922,272.153625L518.412659,272.193481L522.193909,272.016663L522.610779,275.061279L522.749512,275.620789L523.003906,276.138184L523.362305,276.589722L523.808472,276.954895L524.321960,277.217041L524.879333,277.364197L525.455261,277.389648L533.364380,276.892273L533.934875,276.794250L534.471436,276.576843L534.949280,276.250000L535.346497,275.828857L535.644714,275.332703L535.830383,274.784424L535.894897,274.209045L535.908569,270.995911z"
           fill="#949AAD"
           stroke="none"
           fill-opacity="0.400621057"
           id="path1"
           style="fill:#6d66c8;fill-opacity:1" />
      </g>
    </g>
  </g>
</svg>
