<svg width="200.0" height="200.0" xmlns="http://www.w3.org/2000/svg">
    <path d="M 0.0 -0.0 L 76.71337890625 79.01432800292969 L 34.64517593383789 50.98387145996094 L 76.71337890625 86.05573272705078 L 0.0 49.999996185302734 L 76.71337890625 90.65763854980469 L 34.64517593383789 83.66129302978516 L 76.71337890625 97.69904327392578 L 0.0 99.99999237060547 L 76.71337890625 102.30095672607422 L 34.64517593383789 116.33870697021484 L 76.71337890625 109.34236145019531 L 0.0 150.0 L 76.71337890625 113.94426727294922 L 34.64517593383789 149.01612854003906 L 76.71337890625 120.98567199707031 L 0.0 200.0 L 79.01432800292969 123.28662872314453 L 50.98389434814453 165.3548126220703 L 86.05574035644531 123.28662872314453 L 50.0 200.0 L 90.65763854980469 123.28662872314453 L 83.66129302978516 165.3548126220703 L 97.69905090332031 123.28662872314453 L 100.0 200.0 L 102.30095672607422 123.28662872314453 L 116.33870697021484 165.3548126220703 L 109.34236145019531 123.28662872314453 L 150.0 200.0 L 113.94426727294922 123.28662872314453 L 149.01611328125 165.3548126220703 L 120.98567199707031 123.28662872314453 L 200.0 200.0 L 123.28662872314453 120.98567199707031 L 165.35482788085938 149.01612854003906 L 123.28662872314453 113.94426727294922 L 200.0 150.0 L 123.28662872314453 109.34236145019531 L 165.35482788085938 116.33870697021484 L 123.28662872314453 102.30095672607422 L 200.0 100.0 L 123.28662872314453 97.69904327392578 L 165.35482788085938 83.66130065917969 L 123.28662872314453 90.65763854980469 L 200.0 50.0 L 123.28662872314453 86.05573272705078 L 165.35482788085938 50.98387145996094 L 123.28662872314453 79.01432800292969 L 200.0 -0.0 L 120.98567199707031 76.71337890625 L 149.01611328125 34.64518737792969 L 113.94426727294922 76.71337890625 L 150.0 -0.0 L 109.34236145019531 76.71337890625 L 116.33870697021484 34.64518737792969 L 102.30095672607422 76.71337890625 L 100.0 -0.0 L 97.69905090332031 76.71337890625 L 83.66129302978516 34.64518737792969 L 90.65763854980469 76.71337890625 L 50.0 -0.0 L 86.05574035644531 76.71337890625 L 50.98389434814453 34.64518737792969 L 79.01432800292969 76.71337890625 Z " fill="#ffffff" fill-opacity="1.0" fill-rule="evenodd"/>
</svg>