<?xml version="1.0" encoding="UTF-8" standalone="no"?>
<svg
   width="242.36056518554688"
   height="59.791934967041016"
   version="1.1"
   id="svg1"
   sodipodi:docname="svg buttons bg - Copy.svg"
   inkscape:version="1.4 (86a8ad7, 2024-10-11)"
   xmlns:inkscape="http://www.inkscape.org/namespaces/inkscape"
   xmlns:sodipodi="http://sodipodi.sourceforge.net/DTD/sodipodi-0.dtd"
   xmlns="http://www.w3.org/2000/svg"
   xmlns:svg="http://www.w3.org/2000/svg">
  <defs
     id="defs1" />
  <sodipodi:namedview
     id="namedview1"
     pagecolor="#505050"
     bordercolor="#eeeeee"
     borderopacity="1"
     inkscape:showpageshadow="0"
     inkscape:pageopacity="0"
     inkscape:pagecheckerboard="0"
     inkscape:deskcolor="#505050"
     inkscape:zoom="1.5225249"
     inkscape:cx="141.8696"
     inkscape:cy="15.763289"
     inkscape:window-width="1600"
     inkscape:window-height="930"
     inkscape:window-x="-6"
     inkscape:window-y="-6"
     inkscape:window-maximized="1"
     inkscape:current-layer="svg1" />
  <path
     d="M 115.51844787597656 1.6480058431625366 C 115.99027252197266 1.6480088233947754 ,116.46208953857422 1.6480058431625366 ,116.93390655517578 1.6480058431625366 C 117.40572357177734 1.6480088233947754 ,117.8775405883789 1.648014783859253 ,118.349365234375 1.6480118036270142 C 118.82118225097656 1.6480118036270142 ,119.29299926757812 1.6480028629302979 ,119.76483154296875 1.647999882698059 C 120.23664855957031 1.647999882698059 ,120.70846557617188 1.6480058431625366 ,121.18028259277344 1.6480058431625366 C 121.652099609375 1.6480088233947754 ,122.1239242553711 1.6480058431625366 ,122.59574127197266 1.6480058431625366 C 123.06755828857422 1.6480028629302979 ,123.53939056396484 1.647999882698059 ,124.0112075805664 1.6480028629302979 C 124.48302459716797 1.6480058431625366 ,124.95484161376953 1.6480058431625366 ,125.4266586303711 1.6480058431625366 C 125.89848327636719 1.6480088233947754 ,126.37030029296875 1.6480088233947754 ,126.84211730957031 1.6480058431625366 L 196.16404724121094 1.6480058431625366 C 201.15069580078125 1.7647892236709595 ,206.4491729736328 1.573503017425537 ,211.48471069335938 2.22158145904541 C 216.520263671875 2.8696627616882324 ,221.29290771484375 4.35711145401001 ,225.35438537597656 6.820122718811035 C 229.4158935546875 9.283134460449219 ,232.76625061035156 12.721711158752441 ,235.04409790039062 16.73027801513672 C 237.3219451904297 20.73884391784668 ,238.5272979736328 25.317399978637695 ,238.52725219726562 29.895952224731445 C 238.52725219726562 34.47450256347656 ,237.3218536376953 39.05305099487305 ,235.04400634765625 43.06161880493164 C 232.76620483398438 47.070186614990234 ,229.4159393310547 50.50877380371094 ,225.35443115234375 52.97178649902344 C 221.2929229736328 55.43479919433594 ,216.5201416015625 56.92223358154297 ,211.4846649169922 57.57032775878906 C 206.44921875 58.21842956542969 ,201.15106201171875 58.02719497680664 ,196.16403198242188 58.14390182495117 L 46.19652557373047 58.14390182495117 C 41.20988845825195 58.0271110534668 ,35.91143035888672 58.218406677246094 ,30.875885009765625 57.57032775878906 C 25.840335845947266 56.922245025634766 ,21.067691802978516 55.43479919433594 ,17.006195068359375 52.971778869628906 C 12.944686889648438 50.508766174316406 ,9.59433364868164 47.070194244384766 ,7.316482067108154 43.06162643432617 C 5.038630962371826 39.05305862426758 ,3.833281993865967 34.47450256347656 ,3.833305835723877 29.895950317382812 C 3.833329677581787 25.317398071289062 ,5.038726329803467 20.738853454589844 ,7.316553592681885 16.73028564453125 C 9.594368934631348 12.721717834472656 ,12.944626808166504 9.28312873840332 ,17.006147384643555 6.820118427276611 C 21.067655563354492 4.3571085929870605 ,25.84041976928711 2.869680404663086 ,30.875873565673828 2.22158145904541 C 35.91133499145508 1.5734851360321045 ,41.209476470947266 1.7647206783294678 ,46.1965217590332 1.6480058431625366 Z "
     fill="#000000"
     fill-opacity="1.0"
     fill-rule="evenodd"
     id="path1"
     style="fill:#ffffff;fill-opacity:1" />
</svg>
