<?xml version="1.0" encoding="UTF-8" standalone="no"?>
<svg
   width="254.9459991455078"
   height="77.36860656738281"
   version="1.1"
   id="svg11"
   sodipodi:docname="svg button ext.svg"
   inkscape:version="1.4 (86a8ad7, 2024-10-11)"
   xmlns:inkscape="http://www.inkscape.org/namespaces/inkscape"
   xmlns:sodipodi="http://sodipodi.sourceforge.net/DTD/sodipodi-0.dtd"
   xmlns="http://www.w3.org/2000/svg"
   xmlns:svg="http://www.w3.org/2000/svg">
  <defs
     id="defs11" />
  <sodipodi:namedview
     id="namedview11"
     pagecolor="#505050"
     bordercolor="#eeeeee"
     borderopacity="1"
     inkscape:showpageshadow="0"
     inkscape:pageopacity="0"
     inkscape:pagecheckerboard="0"
     inkscape:deskcolor="#505050"
     inkscape:zoom="16.37507"
     inkscape:cx="224.45706"
     inkscape:cy="59.053184"
     inkscape:window-width="1600"
     inkscape:window-height="930"
     inkscape:window-x="-6"
     inkscape:window-y="-6"
     inkscape:window-maximized="1"
     inkscape:current-layer="svg11" />
  <path
     d="m 219.68022,73.829297 c 13.67213,-1.6636 27.02279,-10.531566 30.20849,-25.22074 l -5.82281,-2.233421 c -0.61691,1.534744 -1.18205,2.802997 -1.71076,3.887001 -0.52871,1.084007 -1.02099,1.983768 -1.49083,2.768345 -0.46984,0.78458 -0.91726,1.453979 -1.35248,2.056217 -0.43524,0.602245 -0.85834,1.137329 -1.27686,1.636135 -0.41855,0.498806 -0.8325,0.961338 -1.24618,1.398414 -0.41368,0.437077 -0.82701,0.848706 -1.24478,1.242001 -0.41779,0.393295 -0.83999,0.76825 -1.27248,1.130928 -0.43251,0.362667 -0.87531,0.713059 -1.3354,1.055893 -0.46007,0.342834 -0.93749,0.678104 -1.43998,1.009258 -0.50248,0.331143 -1.03009,0.658173 -1.5942,0.983357 -0.56412,0.325187 -1.16478,0.648529 -1.83364,0.972137 -0.66888,0.323616 -1.406,0.647515 -2.2605,0.973427 -0.85449,0.325913 -1.82632,0.653862 -2.9858,0.985527 -1.15952,0.331657 -2.50664,0.66703 -4.12565,1.00705 z"
     fill="#004fff"
     fill-opacity="1.0"
     fill-rule="evenodd"
     id="path7"
     style="fill:#0d0d0d;fill-opacity:1"
     sodipodi:nodetypes="cccssssssssssssscc" />
</svg>
