<svg width="246.90232849121094" height="67.26095581054688" xmlns="http://www.w3.org/2000/svg">
    <path d="M 217.7959442138672 66.16716003417969 C 219.6005859375 65.78800964355469 ,221.10272216796875 65.41415405273438 ,222.39549255371094 65.04441833496094 C 223.68826293945312 64.67469024658203 ,224.77163696289062 64.3090591430664 ,225.72427368164062 63.945709228515625 C 226.67689514160156 63.58235549926758 ,227.49867248535156 63.221275329589844 ,228.24440002441406 62.86048889160156 C 228.99012756347656 62.49970626831055 ,229.6597442626953 62.139225006103516 ,230.2886505126953 61.77668762207031 C 230.91757202148438 61.414146423339844 ,231.50576782226562 61.049556732177734 ,232.0659637451172 60.68037796020508 C 232.6261749267578 60.311187744140625 ,233.15835571289062 59.93740463256836 ,233.67127990722656 59.555198669433594 C 234.18423461914062 59.17298889160156 ,234.6779327392578 58.782352447509766 ,235.1601104736328 58.37801742553711 C 235.6422882080078 57.973690032958984 ,236.11302185058594 57.5556640625 ,236.5787811279297 57.1171989440918 C 237.04452514648438 56.67873001098633 ,237.50537109375 56.21982192993164 ,237.96653747558594 55.73253631591797 C 238.4276885986328 55.24525451660156 ,238.88922119140625 54.72960662841797 ,239.35585021972656 54.17350387573242 C 239.8224334716797 53.617401123046875 ,240.29412841796875 53.020851135253906 ,240.77935791015625 52.34943771362305 C 241.26458740234375 51.67802429199219 ,241.76339721679688 50.9317512512207 ,242.28720092773438 50.05704116821289 C 242.81100463867188 49.182342529296875 ,243.35980224609375 48.17921447753906 ,243.94931030273438 46.9707145690918 C 244.53878784179688 45.762210845947266 ,245.1688995361328 44.34833526611328 ,245.85650634765625 42.63726043701172 L 241.9180908203125 41.14082336425781 C 241.30117797851562 42.675567626953125 ,240.73605346679688 43.94382095336914 ,240.20733642578125 45.02782440185547 C 239.67861938476562 46.11183166503906 ,239.18634033203125 47.01158905029297 ,238.7165069580078 47.796173095703125 C 238.24667358398438 48.58074951171875 ,237.79925537109375 49.250144958496094 ,237.364013671875 49.85239028930664 C 236.92877197265625 50.454627990722656 ,236.50570678710938 50.98971176147461 ,236.087158203125 51.48851776123047 C 235.66860961914062 51.987327575683594 ,235.254638671875 52.449859619140625 ,234.84097290039062 52.886940002441406 C 234.42730712890625 53.324012756347656 ,234.0139617919922 53.73563766479492 ,233.59617614746094 54.12893295288086 C 233.1784210205078 54.5222282409668 ,232.7562255859375 54.89719009399414 ,232.32371520996094 55.25986099243164 C 231.89120483398438 55.622535705566406 ,231.4484100341797 55.97292709350586 ,230.98831176757812 56.315757751464844 C 230.52822875976562 56.65858840942383 ,230.05084228515625 56.993865966796875 ,229.54835510253906 57.32501220703125 C 229.04583740234375 57.65616226196289 ,228.51824951171875 57.98318862915039 ,227.9541473388672 58.30837631225586 C 227.38999938964844 58.63355255126953 ,226.7893829345703 58.9568977355957 ,226.12049865722656 59.280513763427734 C 225.4516143798828 59.60413360595703 ,224.7145233154297 59.92802429199219 ,223.8600311279297 60.25394058227539 C 223.0055389404297 60.57985305786133 ,222.03369140625 60.907798767089844 ,220.8741912841797 61.23945617675781 C 219.71469116210938 61.57112121582031 ,218.3675537109375 61.906494140625 ,216.74855041503906 62.24652099609375 Z " fill="#007fff" fill-opacity="1.0" fill-rule="evenodd"/>
    <path d="M 28.060562133789062 66.16716003417969 C 26.255910873413086 65.78800964355469 ,24.753772735595703 65.41415405273438 ,23.461008071899414 65.04441833496094 C 22.168243408203125 64.67469024658203 ,21.0848445892334 64.3090591430664 ,20.132232666015625 63.945709228515625 C 19.17961883544922 63.58235549926758 ,18.357812881469727 63.221275329589844 ,17.612098693847656 62.86048889160156 C 16.86638641357422 62.49970626831055 ,16.19676399230957 62.139225006103516 ,15.567838668823242 61.77668762207031 C 14.938926696777344 61.414146423339844 ,14.350711822509766 61.049556732177734 ,13.790523529052734 60.68037796020508 C 13.230323791503906 60.311187744140625 ,12.698137283325195 59.93740463256836 ,12.185203552246094 59.555198669433594 C 11.672258377075195 59.17298889160156 ,11.178577423095703 58.782352447509766 ,10.69638729095459 58.37801742553711 C 10.214197158813477 57.973690032958984 ,9.743488311767578 57.5556640625 ,9.277725219726562 57.1171989440918 C 8.811962127685547 56.67873001098633 ,8.35113525390625 56.21982192993164 ,7.889962196350098 55.73253631591797 C 7.4288010597229 55.24525451660156 ,6.967270374298096 54.72960662841797 ,6.500661373138428 54.17350387573242 C 6.034064292907715 53.617401123046875 ,5.562388896942139 53.020851135253906 ,5.077147483825684 52.34943771362305 C 4.591917991638184 51.67802429199219 ,4.09311056137085 50.9317512512207 ,3.569304943084717 50.05704116821289 C 3.045499324798584 49.182342529296875 ,2.4966835975646973 48.17921447753906 ,1.907193660736084 46.9707145690918 C 1.3177275657653809 45.762210845947266 ,0.6875991821289062 44.34833526611328 ,0.0 42.63726043701172 L 3.9384007453918457 41.14082336425781 C 4.555320739746094 42.675567626953125 ,5.120456218719482 43.94382095336914 ,5.649161338806152 45.02782440185547 C 6.177866458892822 46.11183166503906 ,6.6701531410217285 47.01158905029297 ,7.139992713928223 47.796173095703125 C 7.609832286834717 48.58074951171875 ,8.057236671447754 49.250144958496094 ,8.492481231689453 49.85239028930664 C 8.927726745605469 50.454627990722656 ,9.350812911987305 50.98971176147461 ,9.769344329833984 51.48851776123047 C 10.187875747680664 51.987327575683594 ,10.60185432434082 52.449859619140625 ,11.015522003173828 52.886940002441406 C 11.429190635681152 53.324012756347656 ,11.842536926269531 53.73563766479492 ,12.260305404663086 54.12893295288086 C 12.67808723449707 54.5222282409668 ,13.100278854370117 54.89719009399414 ,13.532781600952148 55.25986099243164 C 13.96528434753418 55.622535705566406 ,14.408075332641602 55.97292709350586 ,14.868175506591797 56.315757751464844 C 15.328264236450195 56.65858840942383 ,15.805662155151367 56.993865966796875 ,16.30815315246582 57.32501220703125 C 16.81065559387207 57.65616226196289 ,17.338239669799805 57.98318862915039 ,17.902362823486328 58.30837631225586 C 18.46648406982422 58.63355255126953 ,19.0671329498291 58.9568977355957 ,19.736003875732422 59.280513763427734 C 20.404874801635742 59.60413360595703 ,21.14199447631836 59.92802429199219 ,21.99648666381836 60.25394058227539 C 22.850967407226562 60.57985305786133 ,23.82282066345215 60.907798767089844 ,24.982309341430664 61.23945617675781 C 26.14181137084961 61.57112121582031 ,27.488941192626953 61.906494140625 ,29.107952117919922 62.24652099609375 Z " fill="#007fff" fill-opacity="1.0" fill-rule="evenodd"/>
    <path d="M 217.7959442138672 -0.0 C 219.6005859375 0.3791511058807373 ,221.10272216796875 0.7530003786087036 ,222.39549255371094 1.122736930847168 C 223.68826293945312 1.4924734830856323 ,224.77163696289062 1.8580973148345947 ,225.72427368164062 2.2214503288269043 C 226.67689514160156 2.5848031044006348 ,227.49867248535156 2.945885181427002 ,228.24440002441406 3.3066658973693848 C 228.99012756347656 3.667449951171875 ,229.6597442626953 4.027935981750488 ,230.2886505126953 4.390472412109375 C 230.91757202148438 4.7530083656311035 ,231.50576782226562 5.117598056793213 ,232.0659637451172 5.486783504486084 C 232.6261749267578 5.855968475341797 ,233.15835571289062 6.229755401611328 ,233.67127990722656 6.611964225769043 C 234.18423461914062 6.994173049926758 ,234.6779327392578 7.384809970855713 ,235.1601104736328 7.789137840270996 C 235.6422882080078 8.19347095489502 ,236.11302185058594 8.611494064331055 ,236.5787811279297 9.04996109008789 C 237.04452514648438 9.488428115844727 ,237.50537109375 9.947336196899414 ,237.96653747558594 10.434618949890137 C 238.4276885986328 10.92190170288086 ,238.88922119140625 11.437553405761719 ,239.35585021972656 11.99365520477295 C 239.8224334716797 12.549756050109863 ,240.29412841796875 13.146305084228516 ,240.77935791015625 13.817718505859375 C 241.26458740234375 14.489131927490234 ,241.76339721679688 15.235408782958984 ,242.28720092773438 16.1101131439209 C 242.81100463867188 16.984813690185547 ,243.35980224609375 17.98794174194336 ,243.94931030273438 19.196443557739258 C 244.53878784179688 20.404945373535156 ,245.1688995361328 21.81882095336914 ,245.85650634765625 23.52989959716797 L 241.9180908203125 25.02633285522461 C 241.30117797851562 23.49159049987793 ,240.73605346679688 22.223339080810547 ,240.20733642578125 21.139331817626953 C 239.67861938476562 20.055326461791992 ,239.18634033203125 19.155567169189453 ,238.7165069580078 18.370986938476562 C 238.24667358398438 17.586408615112305 ,237.79925537109375 16.917011260986328 ,237.364013671875 16.314769744873047 C 236.92877197265625 15.712529182434082 ,236.50570678710938 15.177446365356445 ,236.087158203125 14.67863941192627 C 235.66860961914062 14.179831504821777 ,235.254638671875 13.717299461364746 ,234.84097290039062 13.280221939086914 C 234.42730712890625 12.843143463134766 ,234.0139617919922 12.431517601013184 ,233.59617614746094 12.038223266601562 C 233.1784210205078 11.644929885864258 ,232.7562255859375 11.26997184753418 ,232.32371520996094 10.907297134399414 C 231.89120483398438 10.544622421264648 ,231.4484100341797 10.194231986999512 ,230.98831176757812 9.851399421691895 C 230.52822875976562 9.508567810058594 ,230.05084228515625 9.173295021057129 ,229.54835510253906 8.842144966125488 C 229.04583740234375 8.51099681854248 ,228.51824951171875 8.183967590332031 ,227.9541473388672 7.858786106109619 C 227.38999938964844 7.533600807189941 ,226.7893829345703 7.210260391235352 ,226.12049865722656 6.886646270751953 C 225.4516143798828 6.563028812408447 ,224.7145233154297 6.239137172698975 ,223.8600311279297 5.913218975067139 C 223.0055389404297 5.587303638458252 ,222.03369140625 5.259358882904053 ,220.8741912841797 4.927697658538818 C 219.71469116210938 4.596036911010742 ,218.3675537109375 4.260662078857422 ,216.74855041503906 3.9206385612487793 Z " fill="#007fff" fill-opacity="1.0" fill-rule="evenodd"/>
    <path d="M 28.060562133789062 -0.0 C 26.255910873413086 0.3791511058807373 ,24.753772735595703 0.7530003786087036 ,23.461008071899414 1.122736930847168 C 22.168243408203125 1.4924734830856323 ,21.0848445892334 1.8580973148345947 ,20.132232666015625 2.2214503288269043 C 19.17961883544922 2.5848031044006348 ,18.357812881469727 2.945885181427002 ,17.612098693847656 3.3066658973693848 C 16.86638641357422 3.667449951171875 ,16.19676399230957 4.027935981750488 ,15.567838668823242 4.390472412109375 C 14.938926696777344 4.7530083656311035 ,14.350711822509766 5.117598056793213 ,13.790523529052734 5.486783504486084 C 13.230323791503906 5.855968475341797 ,12.698137283325195 6.229755401611328 ,12.185203552246094 6.611964225769043 C 11.672258377075195 6.994173049926758 ,11.178577423095703 7.384809970855713 ,10.69638729095459 7.789137840270996 C 10.214197158813477 8.19347095489502 ,9.743488311767578 8.611494064331055 ,9.277725219726562 9.04996109008789 C 8.811962127685547 9.488428115844727 ,8.35113525390625 9.947336196899414 ,7.889962196350098 10.434618949890137 C 7.4288010597229 10.92190170288086 ,6.967270374298096 11.437553405761719 ,6.500661373138428 11.99365520477295 C 6.034064292907715 12.549756050109863 ,5.562388896942139 13.146305084228516 ,5.077147483825684 13.817718505859375 C 4.591917991638184 14.489131927490234 ,4.09311056137085 15.235408782958984 ,3.569304943084717 16.1101131439209 C 3.045499324798584 16.984813690185547 ,2.4966835975646973 17.98794174194336 ,1.907193660736084 19.196443557739258 C 1.3177275657653809 20.404945373535156 ,0.6875991821289062 21.81882095336914 ,0.0 23.52989959716797 L 3.9384007453918457 25.02633285522461 C 4.555320739746094 23.49159049987793 ,5.120456218719482 22.223339080810547 ,5.649161338806152 21.139331817626953 C 6.177866458892822 20.055326461791992 ,6.6701531410217285 19.155567169189453 ,7.139992713928223 18.370986938476562 C 7.609832286834717 17.586408615112305 ,8.057236671447754 16.917011260986328 ,8.492481231689453 16.314769744873047 C 8.927726745605469 15.712529182434082 ,9.350812911987305 15.177446365356445 ,9.769344329833984 14.67863941192627 C 10.187875747680664 14.179831504821777 ,10.60185432434082 13.717299461364746 ,11.015522003173828 13.280221939086914 C 11.429190635681152 12.843143463134766 ,11.842536926269531 12.431517601013184 ,12.260305404663086 12.038223266601562 C 12.67808723449707 11.644929885864258 ,13.100278854370117 11.26997184753418 ,13.532781600952148 10.907297134399414 C 13.96528434753418 10.544622421264648 ,14.408075332641602 10.194231986999512 ,14.868175506591797 9.851399421691895 C 15.328264236450195 9.508567810058594 ,15.805662155151367 9.173295021057129 ,16.30815315246582 8.842144966125488 C 16.81065559387207 8.51099681854248 ,17.338239669799805 8.183967590332031 ,17.902362823486328 7.858786106109619 C 18.46648406982422 7.533600807189941 ,19.0671329498291 7.210260391235352 ,19.736003875732422 6.886646270751953 C 20.404874801635742 6.563028812408447 ,21.14199447631836 6.239137172698975 ,21.99648666381836 5.913218975067139 C 22.850967407226562 5.587303638458252 ,23.82282066345215 5.259358882904053 ,24.982309341430664 4.927697658538818 C 26.14181137084961 4.596036911010742 ,27.488941192626953 4.260662078857422 ,29.107952117919922 3.9206385612487793 Z " fill="#007fff" fill-opacity="1.0" fill-rule="evenodd"/>
</svg>