<?xml version="1.0" encoding="UTF-8" standalone="no"?>
<svg
   width="254.9459991455078"
   height="77.36860656738281"
   version="1.1"
   id="svg11"
   sodipodi:docname="svg buttons ext.svg"
   inkscape:version="1.4 (86a8ad7, 2024-10-11)"
   xmlns:inkscape="http://www.inkscape.org/namespaces/inkscape"
   xmlns:sodipodi="http://sodipodi.sourceforge.net/DTD/sodipodi-0.dtd"
   xmlns="http://www.w3.org/2000/svg"
   xmlns:svg="http://www.w3.org/2000/svg">
  <defs
     id="defs11" />
  <sodipodi:namedview
     id="namedview11"
     pagecolor="#505050"
     bordercolor="#eeeeee"
     borderopacity="1"
     inkscape:showpageshadow="0"
     inkscape:pageopacity="0"
     inkscape:pagecheckerboard="0"
     inkscape:deskcolor="#505050"
     inkscape:zoom="4.0937674"
     inkscape:cx="174.65575"
     inkscape:cy="36.396792"
     inkscape:window-width="1600"
     inkscape:window-height="930"
     inkscape:window-x="-6"
     inkscape:window-y="-6"
     inkscape:window-maximized="1"
     inkscape:current-layer="svg11" />
  <path
     d="M 224.2045135498047 77.36860656738281 C 226.18170166015625 76.95318603515625 ,227.82723999023438 76.54365539550781 ,229.24349975585938 76.13860321044922 C 230.65972900390625 75.73355102539062 ,231.84666442871094 75.33297729492188 ,232.89028930664062 74.93489837646484 C 233.93392944335938 74.53682708740234 ,234.83424377441406 74.14125061035156 ,235.65121459960938 73.74600219726562 C 236.46815490722656 73.35075378417969 ,237.2017364501953 72.95582580566406 ,237.8907470703125 72.55865478515625 C 238.57974243164062 72.1614761352539 ,239.22415161132812 71.76204681396484 ,239.837890625 71.35759735107422 C 240.45162963867188 70.95313262939453 ,241.03465270996094 70.54364013671875 ,241.5966033935547 70.12490844726562 C 242.15855407714844 69.70619201660156 ,242.69940185546875 69.27824401855469 ,243.22767639160156 68.83527374267578 C 243.75592041015625 68.3923110961914 ,244.2715606689453 67.9343490600586 ,244.78182983398438 67.4539794921875 C 245.29208374023438 66.97362518310547 ,245.79693603515625 66.47087097167969 ,246.3022003173828 65.93704223632812 C 246.80743408203125 65.4031982421875 ,247.3130645751953 64.83828735351562 ,247.82423400878906 64.22905731201172 C 248.3354034423828 63.61982345581055 ,248.85215759277344 62.96628189086914 ,249.38372802734375 62.230716705322266 C 249.91531372070312 61.49516296386719 ,250.46176147460938 60.677574157714844 ,251.03565979003906 59.71930694580078 C 251.6095428466797 58.761043548583984 ,252.2108612060547 57.66209411621094 ,252.8565673828125 56.338130950927734 C 253.5022735595703 55.014163970947266 ,254.19239807128906 53.465187072753906 ,254.9459991455078 51.59064483642578 L 246.4628448486328 46.741554260253906 C 245.84593200683594 48.27629470825195 ,245.28079223632812 49.54454803466797 ,244.7520751953125 50.62855529785156 C 244.22337341308594 51.712562561035156 ,243.73109436035156 52.6123161315918 ,243.26124572753906 53.39689254760742 C 242.79141235351562 54.18146896362305 ,242.343994140625 54.85087203979492 ,241.9087677001953 55.45310974121094 C 241.47352600097656 56.05534744262695 ,241.05043029785156 56.590431213378906 ,240.6319122314453 57.08924102783203 C 240.21336364746094 57.58804702758789 ,239.79940795898438 58.05057907104492 ,239.38572692871094 58.48765563964844 C 238.9720458984375 58.92473602294922 ,238.5587158203125 59.33636474609375 ,238.1409454345703 59.729652404785156 C 237.72315979003906 60.122947692871094 ,237.30096435546875 60.497901916503906 ,236.86846923828125 60.86058044433594 C 236.4359588623047 61.2232551574707 ,235.9931640625 61.573646545410156 ,235.53306579589844 61.916481018066406 C 235.072998046875 62.25931167602539 ,234.5955810546875 62.594581604003906 ,234.0930938720703 62.92573165893555 C 233.59060668945312 63.25688171386719 ,233.06300354003906 63.58391189575195 ,232.49888610839844 63.909088134765625 C 231.9347686767578 64.23428344726562 ,231.3341064453125 64.5576171875 ,230.66525268554688 64.88123321533203 C 229.99636840820312 65.20484924316406 ,229.25924682617188 65.52874755859375 ,228.40475463867188 65.85466003417969 C 227.55026245117188 66.18057250976562 ,226.57843017578125 66.5085220336914 ,225.4189453125 66.8401870727539 C 224.2594451904297 67.17184448242188 ,222.9123077392578 67.5072250366211 ,221.29330444335938 67.84725189208984 Z "
     fill="#004fff"
     fill-opacity="1.0"
     fill-rule="evenodd"
     id="path2"
     style="fill:#4880ff;fill-opacity:0.34509805" />
  <path
     d="M 221.696044921875 68.99089813232422 C 223.36337280273438 68.64064025878906 ,224.7508087158203 68.2952880859375 ,225.9449462890625 67.9537353515625 C 227.1391143798828 67.6121826171875 ,228.1400146484375 67.2744369506836 ,229.02001953125 66.93878173828125 C 229.90005493164062 66.6031265258789 ,230.65914916992188 66.26956176757812 ,231.34803771972656 65.936279296875 C 232.03688049316406 65.60299682617188 ,232.65550231933594 65.26998901367188 ,233.23651123046875 64.93508911132812 C 233.81747436523438 64.60018157958984 ,234.36083984375 64.26338958740234 ,234.87832641601562 63.92234420776367 C 235.39581298828125 63.581298828125 ,235.887451171875 63.23601150512695 ,236.36131286621094 62.8829345703125 C 236.83514404296875 62.52986145019531 ,237.29119873046875 62.169002532958984 ,237.73660278320312 61.79549026489258 C 238.18203735351562 61.42197799682617 ,238.6168975830078 61.03581619262695 ,239.04714965820312 60.630775451660156 C 239.47740173339844 60.22572326660156 ,239.903076171875 59.80179214477539 ,240.3291015625 59.35165786743164 C 240.755126953125 58.90152359008789 ,241.18148803710938 58.425174713134766 ,241.61253356933594 57.911468505859375 C 242.04356384277344 57.39775848388672 ,242.47927856445312 56.8466796875 ,242.92752075195312 56.226444244384766 C 243.37574768066406 55.60620880126953 ,243.8365478515625 54.91682434082031 ,244.3204345703125 54.10879135131836 C 244.80430603027344 53.30076217651367 ,245.31130981445312 52.37409591674805 ,245.85580444335938 51.25771713256836 C 246.4003143310547 50.141334533691406 ,246.98233032226562 48.835235595703125 ,247.61767578125 47.25458526611328 L 246.4628448486328 46.741546630859375 C 245.84593200683594 48.27629089355469 ,245.28079223632812 49.5445442199707 ,244.7520751953125 50.62854766845703 C 244.22337341308594 51.712554931640625 ,243.73109436035156 52.6123161315918 ,243.26124572753906 53.39689254760742 C 242.79141235351562 54.18147277832031 ,242.343994140625 54.85087203979492 ,241.9087677001953 55.45310974121094 C 241.47352600097656 56.055355072021484 ,241.05043029785156 56.59043884277344 ,240.6319122314453 57.0892448425293 C 240.21336364746094 57.588050842285156 ,239.79940795898438 58.05058288574219 ,239.38572692871094 58.4876594543457 C 238.9720458984375 58.92473602294922 ,238.5587158203125 59.33636474609375 ,238.1409454345703 59.72966003417969 C 237.72315979003906 60.122955322265625 ,237.30096435546875 60.49790954589844 ,236.86846923828125 60.86058807373047 C 236.4359588623047 61.2232551574707 ,235.9931640625 61.573646545410156 ,235.53306579589844 61.916481018066406 C 235.072998046875 62.259315490722656 ,234.5955810546875 62.59458541870117 ,234.0930938720703 62.92573928833008 C 233.59060668945312 63.25688171386719 ,233.06300354003906 63.58391189575195 ,232.49888610839844 63.909095764160156 C 231.9347686767578 64.23428344726562 ,231.3341064453125 64.55762481689453 ,230.66525268554688 64.88123321533203 C 229.99636840820312 65.20484924316406 ,229.25924682617188 65.52874755859375 ,228.40475463867188 65.85466003417969 C 227.55026245117188 66.18057250976562 ,226.57843017578125 66.5085220336914 ,225.4189453125 66.8401870727539 C 224.25942993164062 67.17184448242188 ,222.9123077392578 67.50721740722656 ,221.29330444335938 67.84723663330078 Z "
     fill="#004fff"
     fill-opacity="1.0"
     fill-rule="evenodd"
     id="path7"
     style="fill:#a8d4ff;fill-opacity:1" />
</svg>
