<?xml version="1.0" encoding="UTF-8" standalone="no"?>
<!-- Created with Inkscape (http://www.inkscape.org/) -->

<svg
   width="7.0533462mm"
   height="7.0490637mm"
   viewBox="0 0 7.0533462 7.0490637"
   version="1.1"
   id="svg5"
   inkscape:version="1.1.1 (3bf5ae0d25, 2021-09-20)"
   sodipodi:docname="rendering.svg"
   xmlns:inkscape="http://www.inkscape.org/namespaces/inkscape"
   xmlns:sodipodi="http://sodipodi.sourceforge.net/DTD/sodipodi-0.dtd"
   xmlns="http://www.w3.org/2000/svg"
   xmlns:svg="http://www.w3.org/2000/svg">
  <sodipodi:namedview
     id="namedview7"
     pagecolor="#505050"
     bordercolor="#eeeeee"
     borderopacity="1"
     inkscape:pageshadow="0"
     inkscape:pageopacity="0"
     inkscape:pagecheckerboard="0"
     inkscape:document-units="mm"
     showgrid="false"
     fit-margin-top="0"
     fit-margin-left="0"
     fit-margin-right="0"
     fit-margin-bottom="0"
     inkscape:zoom="16.892154"
     inkscape:cx="10.626235"
     inkscape:cy="9.9158461"
     inkscape:window-width="1920"
     inkscape:window-height="1001"
     inkscape:window-x="-9"
     inkscape:window-y="-9"
     inkscape:window-maximized="1"
     inkscape:current-layer="g3323" />
  <defs
     id="defs2" />
  <g
     inkscape:label="Layer 1"
     inkscape:groupmode="layer"
     id="layer1"
     transform="translate(-90.393375,-137.17833)">
    <g
       id="g3323">
      <g
         id="g15396">
        <path
           id="path22480"
           style="color:#000000;font-style:normal;font-variant:normal;font-weight:normal;font-stretch:normal;font-size:medium;line-height:normal;font-family:sans-serif;font-variant-ligatures:normal;font-variant-position:normal;font-variant-caps:normal;font-variant-numeric:normal;font-variant-alternates:normal;font-feature-settings:normal;text-indent:0;text-align:start;text-decoration:none;text-decoration-line:none;text-decoration-style:solid;text-decoration-color:#000000;letter-spacing:normal;word-spacing:normal;text-transform:none;writing-mode:lr-tb;direction:ltr;text-orientation:mixed;dominant-baseline:auto;baseline-shift:baseline;text-anchor:start;white-space:normal;shape-padding:0;clip-rule:nonzero;display:inline;overflow:visible;visibility:visible;isolation:auto;mix-blend-mode:normal;color-interpolation:sRGB;color-interpolation-filters:linearRGB;solid-color:#000000;solid-opacity:1;vector-effect:none;fill:#ffffff;fill-opacity:1;fill-rule:nonzero;stroke:none;stroke-width:0.264583;stroke-linecap:round;stroke-linejoin:round;stroke-miterlimit:4;stroke-dasharray:none;stroke-dashoffset:0.5;stroke-opacity:1;marker:none;color-rendering:auto;image-rendering:auto;shape-rendering:auto;text-rendering:auto;enable-background:new"
           d="m 92.994549,138.85299 c -0.04164,-8e-5 -0.08089,0.0195 -0.105936,0.0527 l -0.357085,0.47646 h -0.198437 c -0.144291,0 -0.264583,0.12029 -0.264583,0.26458 v 2.38125 c 0,0.14429 0.120292,0.26459 0.264583,0.26459 h 3.175 c 0.14429,0 0.264583,-0.1203 0.264583,-0.26459 v -2.38125 c 0,-0.14429 -0.120293,-0.26458 -0.264583,-0.26458 h -0.992188 l -0.357084,-0.47646 c -0.02505,-0.0333 -0.0643,-0.0528 -0.105936,-0.0527 z m 0.264584,0.26459 h 0.529166 c 0.07306,0 0.132284,0.0592 0.132292,0.13229 v 0.26458 c -8e-6,0.0731 -0.05923,0.13229 -0.132292,0.13229 h -0.529166 c -0.07306,0 -0.132284,-0.0592 -0.132292,-0.13229 v -0.26458 c 8e-6,-0.0731 0.05923,-0.13229 0.132292,-0.13229 z m -0.926042,0.79375 h 2.38125 v 1.85208 h -2.38125 v -1.71979 z m 2.910417,0.26458 c 0.144557,0 0.264583,0.12003 0.264583,0.26458 0,0.14456 -0.120026,0.26459 -0.264583,0.26459 -0.144558,0 -0.264584,-0.12003 -0.264584,-0.26459 0,-0.14455 0.120026,-0.26458 0.264584,-0.26458 z m 0,1.05833 c 0.144557,0 0.264583,0.12003 0.264583,0.26459 0,0.14455 -0.120026,0.26458 -0.264583,0.26458 -0.144558,0 -0.264584,-0.12003 -0.264584,-0.26458 0,-0.14456 0.120026,-0.26459 0.264584,-0.26459 z"
           inkscape:connector-curvature="0"
           sodipodi:nodetypes="cccsssssssscccccccccccccccccccssssssssss" />
        <path
           style="color:#000000;font-style:normal;font-variant:normal;font-weight:normal;font-stretch:normal;font-size:medium;line-height:normal;font-family:sans-serif;font-variant-ligatures:normal;font-variant-position:normal;font-variant-caps:normal;font-variant-numeric:normal;font-variant-alternates:normal;font-feature-settings:normal;text-indent:0;text-align:start;text-decoration:none;text-decoration-line:none;text-decoration-style:solid;text-decoration-color:#000000;letter-spacing:normal;word-spacing:normal;text-transform:none;writing-mode:lr-tb;direction:ltr;text-orientation:mixed;dominant-baseline:auto;baseline-shift:baseline;text-anchor:start;white-space:normal;shape-padding:0;clip-rule:nonzero;display:inline;overflow:visible;visibility:visible;opacity:0.2;isolation:auto;mix-blend-mode:normal;color-interpolation:sRGB;color-interpolation-filters:linearRGB;solid-color:#000000;solid-opacity:1;vector-effect:none;fill:#ffffff;fill-opacity:1;fill-rule:nonzero;stroke:none;stroke-width:0.264583;stroke-linecap:round;stroke-linejoin:round;stroke-miterlimit:4;stroke-dasharray:none;stroke-dashoffset:0.5;stroke-opacity:1;marker:none;color-rendering:auto;image-rendering:auto;shape-rendering:auto;text-rendering:auto;enable-background:new"
           d="m 92.729966,140.17591 a 0.13230491,0.13230491 0 1 0 0,0.26458 h 1.588016 a 0.13230491,0.13230491 0 1 0 0,-0.26458 z m 0,0.52917 a 0.13230491,0.13230491 0 1 0 0,0.26458 h 1.588016 a 0.13230491,0.13230491 0 1 0 0,-0.26458 z m 0,0.52916 a 0.13230491,0.13230491 0 1 0 0,0.26459 h 1.588016 a 0.13230491,0.13230491 0 1 0 0,-0.26459 z"
           id="path22526"
           inkscape:connector-curvature="0" />
        <path
           inkscape:connector-curvature="0"
           d="m 95.111732,138.85299 c -0.178903,-0.003 -0.178903,0.26712 0,0.26459 h 0.264583 c 0.178904,0.003 0.178904,-0.26712 0,-0.26459 z"
           style="color:#000000;font-style:normal;font-variant:normal;font-weight:normal;font-stretch:normal;font-size:medium;line-height:normal;font-family:sans-serif;font-variant-ligatures:normal;font-variant-position:normal;font-variant-caps:normal;font-variant-numeric:normal;font-variant-alternates:normal;font-feature-settings:normal;text-indent:0;text-align:start;text-decoration:none;text-decoration-line:none;text-decoration-style:solid;text-decoration-color:#000000;letter-spacing:normal;word-spacing:normal;text-transform:none;writing-mode:lr-tb;direction:ltr;text-orientation:mixed;dominant-baseline:auto;baseline-shift:baseline;text-anchor:start;white-space:normal;shape-padding:0;clip-rule:nonzero;display:inline;overflow:visible;visibility:visible;opacity:0.8;isolation:auto;mix-blend-mode:normal;color-interpolation:sRGB;color-interpolation-filters:linearRGB;solid-color:#000000;solid-opacity:1;vector-effect:none;fill:#ffffff;fill-opacity:1;fill-rule:nonzero;stroke:none;stroke-width:0.264583;stroke-linecap:round;stroke-linejoin:round;stroke-miterlimit:4;stroke-dasharray:none;stroke-dashoffset:0.5;stroke-opacity:1;marker:none;color-rendering:auto;image-rendering:auto;shape-rendering:auto;text-rendering:auto;enable-background:new"
           id="path22529"
           sodipodi:nodetypes="ccccc" />
        <path
           style="color:#000000;fill:#ffffff;stroke-linecap:round;-inkscape-stroke:none"
           d="m 93.919922,137.17773 c -1.946114,0 -3.527344,1.58037 -3.527344,3.52539 0,1.94503 1.58123,3.52344 3.527344,3.52344 1.946113,0 3.527344,-1.57841 3.527344,-3.52344 0,-1.94502 -1.581231,-3.52539 -3.527344,-3.52539 z m 0,0.26563 c 1.803213,0 3.261719,1.45783 3.261719,3.25976 0,1.80194 -1.458506,3.25977 -3.261719,3.25977 -1.803213,0 -3.261719,-1.45783 -3.261719,-3.25977 0,-1.80193 1.458506,-3.25976 3.261719,-3.25976 z"
           id="path4931" />
      </g>
    </g>
  </g>
</svg>
