<?xml version="1.0" encoding="UTF-8" standalone="no"?>
<!-- Created with Inkscape (http://www.inkscape.org/) -->

<svg
   width="1.0009036mm"
   height="1.0000725mm"
   viewBox="0 0 1.0009036 1.0000725"
   version="1.1"
   id="svg5"
   inkscape:version="1.1.1 (3bf5ae0d25, 2021-09-20)"
   sodipodi:docname="rendering copy 2 - Copie.svg"
   xmlns:inkscape="http://www.inkscape.org/namespaces/inkscape"
   xmlns:sodipodi="http://sodipodi.sourceforge.net/DTD/sodipodi-0.dtd"
   xmlns="http://www.w3.org/2000/svg"
   xmlns:svg="http://www.w3.org/2000/svg">
  <sodipodi:namedview
     id="namedview7"
     pagecolor="#505050"
     bordercolor="#eeeeee"
     borderopacity="1"
     inkscape:pageshadow="0"
     inkscape:pageopacity="0"
     inkscape:pagecheckerboard="0"
     inkscape:document-units="mm"
     showgrid="false"
     fit-margin-top="0"
     fit-margin-left="0"
     fit-margin-right="0"
     fit-margin-bottom="0"
     inkscape:zoom="128"
     inkscape:cx="1.7382812"
     inkscape:cy="2.3632812"
     inkscape:window-width="1920"
     inkscape:window-height="1001"
     inkscape:window-x="-9"
     inkscape:window-y="-9"
     inkscape:window-maximized="1"
     inkscape:current-layer="svg5"
     inkscape:snap-object-midpoints="false"
     inkscape:snap-page="true"
     inkscape:snap-grids="false"
     inkscape:snap-bbox="true"
     inkscape:bbox-paths="true"
     inkscape:bbox-nodes="true" />
  <defs
     id="defs2" />
  <path
     style="color:#000000;fill:#ffffff;stroke-width:0.037543;stroke-linecap:round;-inkscape-stroke:none"
     d="M 0.50045175,0 C 0.224308,0 0,0.2240963 0,0.50008501 0,0.77607375 0.224308,1.00017 0.50045175,1.00017 0.77659573,1.00017 1.0009036,0.77607375 1.0009036,0.50008501 1.0009036,0.2240963 0.77659573,0 0.50045175,0 Z m 0,0.0375438 c 0.25586711,0 0.46290892,0.20685561 0.46290892,0.46254212 0,0.25568599 -0.20704181,0.46254203 -0.46290892,0.46254203 -0.25586683,0 -0.46290872,-0.20685604 -0.46290872,-0.46254203 0,-0.25568651 0.20704189,-0.46254212 0.46290872,-0.46254212 z"
     id="path4931-4" />
  <path
     style="color:#000000;font-style:normal;font-variant:normal;font-weight:normal;font-stretch:normal;font-size:medium;line-height:normal;font-family:sans-serif;font-variant-ligatures:normal;font-variant-position:normal;font-variant-caps:normal;font-variant-numeric:normal;font-variant-alternates:normal;font-feature-settings:normal;text-indent:0;text-align:start;text-decoration:none;text-decoration-line:none;text-decoration-style:solid;text-decoration-color:#000000;letter-spacing:normal;word-spacing:normal;text-transform:none;writing-mode:lr-tb;direction:ltr;text-orientation:mixed;dominant-baseline:auto;baseline-shift:baseline;text-anchor:start;white-space:normal;shape-padding:0;clip-rule:nonzero;display:inline;overflow:visible;visibility:visible;isolation:auto;mix-blend-mode:normal;color-interpolation:sRGB;color-interpolation-filters:linearRGB;solid-color:#000000;solid-opacity:1;vector-effect:none;fill:#ffffff;fill-opacity:1;fill-rule:nonzero;stroke:none;stroke-width:0.037543;stroke-linecap:round;stroke-linejoin:round;stroke-miterlimit:4;stroke-dasharray:none;stroke-dashoffset:0;stroke-opacity:1;marker:none;paint-order:fill markers stroke;color-rendering:auto;image-rendering:auto;shape-rendering:auto;text-rendering:auto;enable-background:accumulate"
     d="m 0.25642194,0.38723584 c -0.0103657,9.2e-7 -0.0187705,0.008406 -0.0187714,0.0187695 v 0.33788751 c 1.08e-6,0.0103683 0.008405,0.0187699 0.0187714,0.0187699 H 0.7444815 c 0.0103682,-9.4e-7 0.0187697,-0.008408 0.0187697,-0.0187699 V 0.51863449 c -9.4e-7,-0.0103669 -0.008406,-0.0187697 -0.0187697,-0.0187697 H 0.46290884 v -0.0938576 c -9.4e-7,-0.0103682 -0.008406,-0.0187697 -0.0187697,-0.0187697 z m 0.0187714,0.0375439 h 0.1501721 v 0.0750862 H 0.27519347 Z m 0,0.11262919 h 0.0750861 v 0.0750862 h -0.0750859 z m 0.11262919,0 h 0.15017206 v 0.0750862 h -0.150172 z m 0.18771542,0 h 0.15017207 v 0.0750862 H 0.575538 Z M 0.27519337,0.65003801 h 0.15017209 v 0.0750862 H 0.27519347 Z m 0.18771545,0 h 0.15017206 v 0.0750862 H 0.46290884 Z m 0.18771496,0 h 0.0750862 v 0.0750862 h -0.0750862 z"
     id="rect22184"
     inkscape:connector-curvature="0"
     sodipodi:nodetypes="ccccccccccccccccccccccccccccccccccccccccccccccc" />
  <path
     style="color:#000000;font-style:normal;font-variant:normal;font-weight:normal;font-stretch:normal;font-size:medium;line-height:normal;font-family:sans-serif;font-variant-ligatures:normal;font-variant-position:normal;font-variant-caps:normal;font-variant-numeric:normal;font-variant-alternates:normal;font-feature-settings:normal;text-indent:0;text-align:start;text-decoration:none;text-decoration-line:none;text-decoration-style:solid;text-decoration-color:#000000;letter-spacing:normal;word-spacing:normal;text-transform:none;writing-mode:lr-tb;direction:ltr;text-orientation:mixed;dominant-baseline:auto;baseline-shift:baseline;text-anchor:start;white-space:normal;shape-padding:0;clip-rule:nonzero;display:inline;overflow:visible;visibility:visible;opacity:0.5;isolation:auto;mix-blend-mode:normal;color-interpolation:sRGB;color-interpolation-filters:linearRGB;solid-color:#000000;solid-opacity:1;vector-effect:none;fill:#ffffff;fill-opacity:1;fill-rule:nonzero;stroke:none;stroke-width:0.037543;stroke-linecap:round;stroke-linejoin:round;stroke-miterlimit:4;stroke-dasharray:none;stroke-dashoffset:0;stroke-opacity:1;marker:none;paint-order:fill markers stroke;color-rendering:auto;image-rendering:auto;shape-rendering:auto;text-rendering:auto;enable-background:accumulate"
     d="m 0.7444815,0.23706332 a 0.0187734,0.0187734 0 0 1 0.0187697,0.0187742 V 0.36846437 A 0.0187734,0.0187734 0 0 1 0.7444815,0.38723404 H 0.55676656 A 0.0187734,0.0187734 0 0 1 0.53799688,0.36846437 V 0.25583518 a 0.0187734,0.0187734 0 0 1 0.0187697,-0.0187742 z M 0.7257118,0.27460722 H 0.57553989 v 0.0750859 h 0.15017203 z"
     id="rect22200"
     inkscape:connector-curvature="0" />
</svg>
