<?xml version="1.0" encoding="UTF-8" standalone="no"?>
<!-- Created with Inkscape (http://www.inkscape.org/) -->

<svg
   width="1.0009036mm"
   height="1.0000725mm"
   viewBox="0 0 1.0009036 1.0000725"
   version="1.1"
   id="svg5"
   inkscape:version="1.1.1 (3bf5ae0d25, 2021-09-20)"
   sodipodi:docname="rendering copy 2 - Copie - Copie.svg"
   xmlns:inkscape="http://www.inkscape.org/namespaces/inkscape"
   xmlns:sodipodi="http://sodipodi.sourceforge.net/DTD/sodipodi-0.dtd"
   xmlns="http://www.w3.org/2000/svg"
   xmlns:svg="http://www.w3.org/2000/svg">
  <sodipodi:namedview
     id="namedview7"
     pagecolor="#505050"
     bordercolor="#eeeeee"
     borderopacity="1"
     inkscape:pageshadow="0"
     inkscape:pageopacity="0"
     inkscape:pagecheckerboard="0"
     inkscape:document-units="mm"
     showgrid="false"
     fit-margin-top="0"
     fit-margin-left="0"
     fit-margin-right="0"
     fit-margin-bottom="0"
     inkscape:zoom="90.509668"
     inkscape:cx="1.524699"
     inkscape:cy="1.4805048"
     inkscape:window-width="1465"
     inkscape:window-height="1030"
     inkscape:window-x="602"
     inkscape:window-y="46"
     inkscape:window-maximized="0"
     inkscape:current-layer="svg5"
     inkscape:snap-object-midpoints="false"
     inkscape:snap-page="true"
     inkscape:snap-grids="false"
     inkscape:snap-bbox="true"
     inkscape:bbox-paths="true"
     inkscape:bbox-nodes="true" />
  <defs
     id="defs2" />
  <path
     style="color:#000000;fill:#ffffff;stroke-linecap:round;-inkscape-stroke:none"
     d="M 0.5,0 C 0.22367114,0 0,0.22404476 0,0.5 0,0.77595524 0.22367114,1 0.5,1 0.77632886,1 1.0019531,0.77595524 1.0019531,0.5 1.0019531,0.22404476 0.77632886,0 0.5,0 Z m 0,0.03710937 C 0.7560731,0.03710938 0.96289063,0.24436222 0.96289063,0.5 0.96289063,0.75563778 0.7560731,0.96289063 0.5,0.96289063 0.2439269,0.96289063 0.03710938,0.75563778 0.03710937,0.5 0.03710938,0.24436222 0.2439269,0.03710937 0.5,0.03710937 Z"
     id="path4931-8-7-7-2-9" />
  <path
     style="color:#000000;font-style:normal;font-variant:normal;font-weight:normal;font-stretch:normal;font-size:medium;line-height:normal;font-family:sans-serif;font-variant-ligatures:normal;font-variant-position:normal;font-variant-caps:normal;font-variant-numeric:normal;font-variant-alternates:normal;font-feature-settings:normal;text-indent:0;text-align:start;text-decoration:none;text-decoration-line:none;text-decoration-style:solid;text-decoration-color:#000000;letter-spacing:normal;word-spacing:normal;text-transform:none;writing-mode:lr-tb;direction:ltr;text-orientation:mixed;dominant-baseline:auto;baseline-shift:baseline;text-anchor:start;white-space:normal;shape-padding:0;clip-rule:nonzero;display:inline;overflow:visible;visibility:visible;isolation:auto;mix-blend-mode:normal;color-interpolation:sRGB;color-interpolation-filters:linearRGB;solid-color:#000000;solid-opacity:1;vector-effect:none;fill:#ffffff;fill-opacity:1;fill-rule:nonzero;stroke:none;stroke-width:0.0375339;stroke-linecap:round;stroke-linejoin:round;stroke-miterlimit:4;stroke-dasharray:none;stroke-dashoffset:0;stroke-opacity:1;marker:none;paint-order:fill markers stroke;color-rendering:auto;image-rendering:auto;shape-rendering:auto;text-rendering:auto;enable-background:accumulate"
     d="m 0.50029315,0.23726222 c -0.1448835,0 -0.26273732,0.11785382 -0.26273732,0.26273732 0,0.14488349 0.11785382,0.26273732 0.26273732,0.26273732 0.14488348,0 0.26273731,-0.11785383 0.26273731,-0.26273732 0,-0.1448835 -0.11785383,-0.26273732 -0.26273731,-0.26273732 z m 0,0.0375339 c 0.0412366,0 0.0750678,0.0338312 0.0750678,0.0750678 0,0.0412366 -0.0338312,0.0750678 -0.0750678,0.0750678 -0.0412366,0 -0.0750678,-0.0338312 -0.0750678,-0.0750678 0,-0.0412366 0.0338312,-0.0750678 0.0750678,-0.0750678 z M 0.35015753,0.42493173 c 0.0412366,0 0.0750678,0.0338312 0.0750678,0.0750678 0,0.0412366 -0.0338312,0.0750678 -0.0750678,0.0750678 -0.0412366,0 -0.0750678,-0.0338312 -0.0750678,-0.0750678 0,-0.0412366 0.0338312,-0.0750678 0.0750678,-0.0750678 z m 0.30027123,0 c 0.0412366,0 0.0750678,0.0338312 0.0750678,0.0750678 0,0.0412366 -0.0338312,0.0750678 -0.0750678,0.0750678 -0.0412366,0 -0.0750678,-0.0338312 -0.0750678,-0.0750678 0,-0.0412366 0.0338312,-0.0750678 0.0750678,-0.0750678 z m -0.15013561,0.0375339 c 0.020507,0 0.0375339,0.0170269 0.0375339,0.0375339 0,0.020507 -0.0170269,0.0375339 -0.0375339,0.0375339 -0.020507,0 -0.0375339,-0.0170269 -0.0375339,-0.0375339 0,-0.020507 0.0170269,-0.0375339 0.0375339,-0.0375339 z m 0,0.11260171 c 0.0412366,0 0.0750678,0.0338312 0.0750678,0.0750678 0,0.0412366 -0.0338312,0.0750678 -0.0750678,0.0750678 -0.0412366,0 -0.0750678,-0.0338312 -0.0750678,-0.0750678 0,-0.0412366 0.0338312,-0.0750678 0.0750678,-0.0750678 z m 0.18634982,0.15013561 a 0.01876883,0.01876883 0 0 0 -0.0177404,0.0184738 0.01876883,0.01876883 0 0 0 0.0190601,0.0190601 h 0.018767 c 0.0312781,0 0.0430345,0.0132693 0.0617988,0.0320359 a 0.01876883,0.01876883 0 1 0 0.026538,-0.026538 C 0.77630057,0.7494675 0.75051928,0.72520296 0.70672961,0.72520296 h -0.018767 a 0.01876883,0.01876883 0 0 0 -0.001321,0 z"
     id="circle11078"
     inkscape:connector-curvature="0" />
</svg>
