<?xml version="1.0" encoding="UTF-8" standalone="no"?>
<!-- Created with Inkscape (http://www.inkscape.org/) -->

<svg
   width="1.0009036mm"
   height="1.0000725mm"
   viewBox="0 0 1.0009036 1.0000725"
   version="1.1"
   id="svg5"
   inkscape:version="1.1.1 (3bf5ae0d25, 2021-09-20)"
   sodipodi:docname="rendering copy.svg"
   xmlns:inkscape="http://www.inkscape.org/namespaces/inkscape"
   xmlns:sodipodi="http://sodipodi.sourceforge.net/DTD/sodipodi-0.dtd"
   xmlns="http://www.w3.org/2000/svg"
   xmlns:svg="http://www.w3.org/2000/svg">
  <sodipodi:namedview
     id="namedview7"
     pagecolor="#505050"
     bordercolor="#eeeeee"
     borderopacity="1"
     inkscape:pageshadow="0"
     inkscape:pageopacity="0"
     inkscape:pagecheckerboard="0"
     inkscape:document-units="mm"
     showgrid="false"
     fit-margin-top="0"
     fit-margin-left="0"
     fit-margin-right="0"
     fit-margin-bottom="0"
     inkscape:zoom="33.784308"
     inkscape:cx="2.2347653"
     inkscape:cy="0.72518875"
     inkscape:window-width="1920"
     inkscape:window-height="1001"
     inkscape:window-x="-9"
     inkscape:window-y="-9"
     inkscape:window-maximized="1"
     inkscape:current-layer="g3323" />
  <defs
     id="defs2" />
  <g
     inkscape:label="Layer 1"
     inkscape:groupmode="layer"
     id="layer1"
     transform="translate(-90.392578,-137.17773)">
    <g
       id="g3323">
      <path
         id="path22480"
         style="color:#000000;font-style:normal;font-variant:normal;font-weight:normal;font-stretch:normal;font-size:medium;line-height:normal;font-family:sans-serif;font-variant-ligatures:normal;font-variant-position:normal;font-variant-caps:normal;font-variant-numeric:normal;font-variant-alternates:normal;font-feature-settings:normal;text-indent:0;text-align:start;text-decoration:none;text-decoration-line:none;text-decoration-style:solid;text-decoration-color:#000000;letter-spacing:normal;word-spacing:normal;text-transform:none;writing-mode:lr-tb;direction:ltr;text-orientation:mixed;dominant-baseline:auto;baseline-shift:baseline;text-anchor:start;white-space:normal;shape-padding:0;clip-rule:nonzero;display:inline;overflow:visible;visibility:visible;isolation:auto;mix-blend-mode:normal;color-interpolation:sRGB;color-interpolation-filters:linearRGB;solid-color:#000000;solid-opacity:1;vector-effect:none;fill:#ffffff;fill-opacity:1;fill-rule:nonzero;stroke:none;stroke-width:0.0375385;stroke-linecap:round;stroke-linejoin:round;stroke-miterlimit:4;stroke-dasharray:none;stroke-dashoffset:0.5;stroke-opacity:1;marker:none;color-rendering:auto;image-rendering:auto;shape-rendering:auto;text-rendering:auto;enable-background:new"
         d="m 90.76174,137.41542 c -0.0059,-1e-5 -0.01148,0.003 -0.01503,0.007 l -0.05066,0.0676 H 90.6679 c -0.02047,0 -0.03754,0.0171 -0.03754,0.0375 v 0.33785 c 0,0.0205 0.01707,0.0375 0.03754,0.0375 h 0.450462 c 0.02047,0 0.03754,-0.0171 0.03754,-0.0375 v -0.33785 c 0,-0.0205 -0.01707,-0.0375 -0.03754,-0.0375 h -0.14077 l -0.05066,-0.0676 c -0.0036,-0.005 -0.0091,-0.007 -0.01503,-0.007 z m 0.03754,0.0375 h 0.07508 c 0.01036,0 0.01877,0.008 0.01877,0.0188 v 0.0375 c -10e-7,0.0104 -0.0084,0.0188 -0.01877,0.0188 h -0.07508 c -0.01037,0 -0.01877,-0.008 -0.01877,-0.0188 v -0.0375 c 10e-7,-0.0104 0.0084,-0.0188 0.01877,-0.0188 z m -0.131385,0.11261 h 0.337846 v 0.26277 h -0.337846 v -0.244 z m 0.412923,0.0375 c 0.02051,0 0.03754,0.017 0.03754,0.0375 0,0.0205 -0.01703,0.0375 -0.03754,0.0375 -0.02051,0 -0.03754,-0.017 -0.03754,-0.0375 0,-0.0205 0.01703,-0.0375 0.03754,-0.0375 z m 0,0.15015 c 0.02051,0 0.03754,0.017 0.03754,0.0375 0,0.0205 -0.01703,0.0375 -0.03754,0.0375 -0.02051,0 -0.03754,-0.017 -0.03754,-0.0375 0,-0.0205 0.01703,-0.0375 0.03754,-0.0375 z"
         inkscape:connector-curvature="0"
         sodipodi:nodetypes="cccsssssssscccccccccccccccccccssssssssss" />
      <path
         style="color:#000000;font-style:normal;font-variant:normal;font-weight:normal;font-stretch:normal;font-size:medium;line-height:normal;font-family:sans-serif;font-variant-ligatures:normal;font-variant-position:normal;font-variant-caps:normal;font-variant-numeric:normal;font-variant-alternates:normal;font-feature-settings:normal;text-indent:0;text-align:start;text-decoration:none;text-decoration-line:none;text-decoration-style:solid;text-decoration-color:#000000;letter-spacing:normal;word-spacing:normal;text-transform:none;writing-mode:lr-tb;direction:ltr;text-orientation:mixed;dominant-baseline:auto;baseline-shift:baseline;text-anchor:start;white-space:normal;shape-padding:0;clip-rule:nonzero;display:inline;overflow:visible;visibility:visible;opacity:0.2;isolation:auto;mix-blend-mode:normal;color-interpolation:sRGB;color-interpolation-filters:linearRGB;solid-color:#000000;solid-opacity:1;vector-effect:none;fill:#ffffff;fill-opacity:1;fill-rule:nonzero;stroke:none;stroke-width:0.0375385;stroke-linecap:round;stroke-linejoin:round;stroke-miterlimit:4;stroke-dasharray:none;stroke-dashoffset:0.5;stroke-opacity:1;marker:none;color-rendering:auto;image-rendering:auto;shape-rendering:auto;text-rendering:auto;enable-background:new"
         d="m 90.724202,137.60311 a 0.01877113,0.01877113 0 1 0 0,0.0375 h 0.225304 a 0.01877113,0.01877113 0 1 0 0,-0.0375 z m 0,0.0751 a 0.01877113,0.01877113 0 1 0 0,0.0375 h 0.225304 a 0.01877113,0.01877113 0 1 0 0,-0.0375 z m 0,0.0751 a 0.01877113,0.01877113 0 1 0 0,0.0375 h 0.225304 a 0.01877113,0.01877113 0 1 0 0,-0.0375 z"
         id="path22526"
         inkscape:connector-curvature="0" />
      <path
         inkscape:connector-curvature="0"
         d="m 91.062121,137.41542 c -0.02538,-4.3e-4 -0.02538,0.0379 0,0.0375 h 0.03754 c 0.02538,4.2e-4 0.02538,-0.0379 0,-0.0375 z"
         style="color:#000000;font-style:normal;font-variant:normal;font-weight:normal;font-stretch:normal;font-size:medium;line-height:normal;font-family:sans-serif;font-variant-ligatures:normal;font-variant-position:normal;font-variant-caps:normal;font-variant-numeric:normal;font-variant-alternates:normal;font-feature-settings:normal;text-indent:0;text-align:start;text-decoration:none;text-decoration-line:none;text-decoration-style:solid;text-decoration-color:#000000;letter-spacing:normal;word-spacing:normal;text-transform:none;writing-mode:lr-tb;direction:ltr;text-orientation:mixed;dominant-baseline:auto;baseline-shift:baseline;text-anchor:start;white-space:normal;shape-padding:0;clip-rule:nonzero;display:inline;overflow:visible;visibility:visible;opacity:0.8;isolation:auto;mix-blend-mode:normal;color-interpolation:sRGB;color-interpolation-filters:linearRGB;solid-color:#000000;solid-opacity:1;vector-effect:none;fill:#ffffff;fill-opacity:1;fill-rule:nonzero;stroke:none;stroke-width:0.0375385;stroke-linecap:round;stroke-linejoin:round;stroke-miterlimit:4;stroke-dasharray:none;stroke-dashoffset:0.5;stroke-opacity:1;marker:none;color-rendering:auto;image-rendering:auto;shape-rendering:auto;text-rendering:auto;enable-background:new"
         id="path22529"
         sodipodi:nodetypes="ccccc" />
      <path
         style="color:#000000;fill:#ffffff;stroke-width:0.141878;stroke-linecap:round;-inkscape-stroke:none"
         d="m 90.89303,137.17773 c -0.27611,0 -0.500452,0.22422 -0.500452,0.50018 0,0.27596 0.224342,0.4999 0.500452,0.4999 0.27611,0 0.500452,-0.22394 0.500452,-0.4999 0,-0.27596 -0.224342,-0.50018 -0.500452,-0.50018 z m 0,0.0377 c 0.255836,0 0.462765,0.20684 0.462765,0.46249 0,0.25565 -0.206929,0.46249 -0.462765,0.46249 -0.255836,0 -0.462766,-0.20684 -0.462766,-0.46249 0,-0.25565 0.20693,-0.46249 0.462766,-0.46249 z"
         id="path4931" />
    </g>
  </g>
</svg>
