<?xml version="1.0" encoding="UTF-8" standalone="no"?>
<!-- Created with Inkscape (http://www.inkscape.org/) -->

<svg
   width="1.0009036mm"
   height="1.0000725mm"
   viewBox="0 0 1.0009036 1.0000725"
   version="1.1"
   id="svg5"
   inkscape:version="1.1.1 (3bf5ae0d25, 2021-09-20)"
   sodipodi:docname="rendering copy 2.svg"
   xmlns:inkscape="http://www.inkscape.org/namespaces/inkscape"
   xmlns:sodipodi="http://sodipodi.sourceforge.net/DTD/sodipodi-0.dtd"
   xmlns="http://www.w3.org/2000/svg"
   xmlns:svg="http://www.w3.org/2000/svg">
  <sodipodi:namedview
     id="namedview7"
     pagecolor="#505050"
     bordercolor="#eeeeee"
     borderopacity="1"
     inkscape:pageshadow="0"
     inkscape:pageopacity="0"
     inkscape:pagecheckerboard="0"
     inkscape:document-units="mm"
     showgrid="false"
     fit-margin-top="0"
     fit-margin-left="0"
     fit-margin-right="0"
     fit-margin-bottom="0"
     inkscape:zoom="128"
     inkscape:cx="1.8867187"
     inkscape:cy="1.9960937"
     inkscape:window-width="1920"
     inkscape:window-height="1001"
     inkscape:window-x="-9"
     inkscape:window-y="-9"
     inkscape:window-maximized="1"
     inkscape:current-layer="svg5" />
  <defs
     id="defs2" />
  <path
     id="path22480-7"
     style="color:#000000;font-style:normal;font-variant:normal;font-weight:normal;font-stretch:normal;font-size:medium;line-height:normal;font-family:sans-serif;font-variant-ligatures:normal;font-variant-position:normal;font-variant-caps:normal;font-variant-numeric:normal;font-variant-alternates:normal;font-feature-settings:normal;text-indent:0;text-align:start;text-decoration:none;text-decoration-line:none;text-decoration-style:solid;text-decoration-color:#000000;letter-spacing:normal;word-spacing:normal;text-transform:none;writing-mode:lr-tb;direction:ltr;text-orientation:mixed;dominant-baseline:auto;baseline-shift:baseline;text-anchor:start;white-space:normal;shape-padding:0;clip-rule:nonzero;display:inline;overflow:visible;visibility:visible;isolation:auto;mix-blend-mode:normal;color-interpolation:sRGB;color-interpolation-filters:linearRGB;solid-color:#000000;solid-opacity:1;vector-effect:none;fill:#ffffff;fill-opacity:1;fill-rule:nonzero;stroke:none;stroke-width:0.0328056;stroke-linecap:round;stroke-linejoin:round;stroke-miterlimit:4;stroke-dasharray:none;stroke-dashoffset:0.5;stroke-opacity:1;marker:none;color-rendering:auto;image-rendering:auto;shape-rendering:auto;text-rendering:auto;enable-background:new"
     d="m 0.384405,0.27819224 c -0.005156,-8.74e-6 -0.0100326,0.002622 -0.013135,0.006117 l -0.0442728,0.059077 H 0.3023964 c -0.0178891,0 -0.0328069,0.014944 -0.0328069,0.032772 v 0.29525411 c 0,0.0179154 0.0149178,0.032772 0.0328069,0.032772 h 0.39366756 c 0.0178891,0 0.0328069,-0.014944 0.0328069,-0.032772 V 0.37615862 c 0,-0.0179153 -0.0149178,-0.032772 -0.0328069,-0.032772 H 0.57304229 l -0.0442728,-0.059077 c -0.003146,-0.00437 -0.007953,-0.006117 -0.013135,-0.006117 z m 0.0328069,0.032772 h 0.0656139 c 0.009054,0 0.0164035,0.006991 0.0164035,0.0164297 v 0.032772 c -8.8e-7,0.009089 -0.007341,0.0164297 -0.0164035,0.0164297 H 0.4172119 c -0.009063,0 -0.0164035,-0.006991 -0.0164035,-0.0164297 v -0.032772 c 8.8e-7,-0.009089 0.007341,-0.0164297 0.0164035,-0.0164297 z M 0.30239202,0.40937631 H 0.59764226 V 0.63901616 H 0.30239202 V 0.42577978 Z m 0.3608615,0.032772 c 0.0179241,0 0.0328069,0.0148566 0.0328069,0.032772 0,0.0179154 -0.0148829,0.032772 -0.0328069,0.032772 -0.0179241,0 -0.0328069,-0.0148566 -0.0328069,-0.032772 0,-0.0179153 0.0148829,-0.032772 0.0328069,-0.032772 z m 0,0.13121903 c 0.0179241,0 0.0328069,0.0148566 0.0328069,0.032772 0,0.0179153 -0.0148829,0.032772 -0.0328069,0.032772 -0.0179241,0 -0.0328069,-0.0148566 -0.0328069,-0.032772 0,-0.0179153 0.0148829,-0.032772 0.0328069,-0.032772 z"
     inkscape:connector-curvature="0"
     sodipodi:nodetypes="cccsssssssscccccccccccccccccccssssssssss" />
  <path
     style="color:#000000;font-style:normal;font-variant:normal;font-weight:normal;font-stretch:normal;font-size:medium;line-height:normal;font-family:sans-serif;font-variant-ligatures:normal;font-variant-position:normal;font-variant-caps:normal;font-variant-numeric:normal;font-variant-alternates:normal;font-feature-settings:normal;text-indent:0;text-align:start;text-decoration:none;text-decoration-line:none;text-decoration-style:solid;text-decoration-color:#000000;letter-spacing:normal;word-spacing:normal;text-transform:none;writing-mode:lr-tb;direction:ltr;text-orientation:mixed;dominant-baseline:auto;baseline-shift:baseline;text-anchor:start;white-space:normal;shape-padding:0;clip-rule:nonzero;display:inline;overflow:visible;visibility:visible;opacity:0.2;isolation:auto;mix-blend-mode:normal;color-interpolation:sRGB;color-interpolation-filters:linearRGB;solid-color:#000000;solid-opacity:1;vector-effect:none;fill:#ffffff;fill-opacity:1;fill-rule:nonzero;stroke:none;stroke-width:0.0328056;stroke-linecap:round;stroke-linejoin:round;stroke-miterlimit:4;stroke-dasharray:none;stroke-dashoffset:0.5;stroke-opacity:1;marker:none;color-rendering:auto;image-rendering:auto;shape-rendering:auto;text-rendering:auto;enable-background:new"
     d="m 0.35159981,0.4422182 a 0.01640446,0.01640446 0 1 0 0,0.032772 h 0.19689758 a 0.01640446,0.01640446 0 1 0 0,-0.032772 z m 0,0.0656314 a 0.01640446,0.01640446 0 1 0 0,0.032772 h 0.19689758 a 0.01640446,0.01640446 0 1 0 0,-0.032772 z m 0,0.0656314 a 0.01640446,0.01640446 0 1 0 0,0.032772 h 0.19689758 a 0.01640446,0.01640446 0 1 0 0,-0.032772 z"
     id="path22526"
     inkscape:connector-curvature="0" />
  <path
     inkscape:connector-curvature="0"
     d="m 0.64691384,0.27819224 c -0.0221801,-3.7579e-4 -0.0221801,0.0331215 0,0.032772 h 0.0328069 c 0.0221801,3.6705e-4 0.0221801,-0.0331215 0,-0.032772 z"
     style="color:#000000;font-style:normal;font-variant:normal;font-weight:normal;font-stretch:normal;font-size:medium;line-height:normal;font-family:sans-serif;font-variant-ligatures:normal;font-variant-position:normal;font-variant-caps:normal;font-variant-numeric:normal;font-variant-alternates:normal;font-feature-settings:normal;text-indent:0;text-align:start;text-decoration:none;text-decoration-line:none;text-decoration-style:solid;text-decoration-color:#000000;letter-spacing:normal;word-spacing:normal;text-transform:none;writing-mode:lr-tb;direction:ltr;text-orientation:mixed;dominant-baseline:auto;baseline-shift:baseline;text-anchor:start;white-space:normal;shape-padding:0;clip-rule:nonzero;display:inline;overflow:visible;visibility:visible;opacity:0.8;isolation:auto;mix-blend-mode:normal;color-interpolation:sRGB;color-interpolation-filters:linearRGB;solid-color:#000000;solid-opacity:1;vector-effect:none;fill:#ffffff;fill-opacity:1;fill-rule:nonzero;stroke:none;stroke-width:0.0328056;stroke-linecap:round;stroke-linejoin:round;stroke-miterlimit:4;stroke-dasharray:none;stroke-dashoffset:0.5;stroke-opacity:1;marker:none;color-rendering:auto;image-rendering:auto;shape-rendering:auto;text-rendering:auto;enable-background:new"
     id="path22529"
     sodipodi:nodetypes="ccccc" />
  <path
     style="color:#000000;fill:#ffffff;stroke-width:0.12399;stroke-linecap:round;-inkscape-stroke:none"
     d="m 0.49914191,0.07047029 c -0.24129794,0 -0.43735481,0.19595025 -0.43735481,0.4371171 0,0.24116685 0.19605687,0.43687237 0.43735481,0.43687237 0.24129793,0 0.43735477,-0.19570552 0.43735477,-0.43687237 0,-0.24116685 -0.19605684,-0.4371171 -0.43735477,-0.4371171 z m 0,0.03294677 c 0.22358009,0 0.40441939,0.18076153 0.40441939,0.40417907 0,0.22341754 -0.1808393,0.40417907 -0.40441939,0.40417907 -0.2235801,0 -0.40442028,-0.18076153 -0.40442028,-0.40417907 0,-0.22341754 0.18084018,-0.40417907 0.40442028,-0.40417907 z"
     id="path4931" />
</svg>
