<?xml version="1.0" encoding="UTF-8" standalone="no"?>
<!-- Created with Inkscape (http://www.inkscape.org/) -->

<svg
   width="1.0009036mm"
   height="1.0000725mm"
   viewBox="0 0 1.0009036 1.0000725"
   version="1.1"
   id="svg5"
   inkscape:version="1.1.1 (3bf5ae0d25, 2021-09-20)"
   sodipodi:docname="rendering copy.svg"
   xmlns:inkscape="http://www.inkscape.org/namespaces/inkscape"
   xmlns:sodipodi="http://sodipodi.sourceforge.net/DTD/sodipodi-0.dtd"
   xmlns="http://www.w3.org/2000/svg"
   xmlns:svg="http://www.w3.org/2000/svg">
  <sodipodi:namedview
     id="namedview7"
     pagecolor="#505050"
     bordercolor="#eeeeee"
     borderopacity="1"
     inkscape:pageshadow="0"
     inkscape:pageopacity="0"
     inkscape:pagecheckerboard="0"
     inkscape:document-units="mm"
     showgrid="false"
     fit-margin-top="0"
     fit-margin-left="0"
     fit-margin-right="0"
     fit-margin-bottom="0"
     inkscape:zoom="135.13723"
     inkscape:cx="1.5132765"
     inkscape:cy="1.6390746"
     inkscape:window-width="1920"
     inkscape:window-height="1001"
     inkscape:window-x="-9"
     inkscape:window-y="-9"
     inkscape:window-maximized="1"
     inkscape:current-layer="svg5"
     inkscape:snap-bbox="true"
     inkscape:bbox-paths="true"
     inkscape:bbox-nodes="true"
     inkscape:snap-global="true"
     inkscape:snap-bbox-edge-midpoints="false"
     inkscape:snap-object-midpoints="false"
     inkscape:object-nodes="false"
     inkscape:snap-nodes="false"
     inkscape:snap-others="false"
     inkscape:snap-grids="false"
     inkscape:snap-to-guides="false"
     inkscape:snap-page="true" />
  <defs
     id="defs2" />
  <path
     style="color:#000000;font-style:normal;font-variant:normal;font-weight:normal;font-stretch:normal;font-size:medium;line-height:normal;font-family:sans-serif;font-variant-ligatures:normal;font-variant-position:normal;font-variant-caps:normal;font-variant-numeric:normal;font-variant-alternates:normal;font-feature-settings:normal;text-indent:0;text-align:start;text-decoration:none;text-decoration-line:none;text-decoration-style:solid;text-decoration-color:#000000;letter-spacing:normal;word-spacing:normal;text-transform:none;writing-mode:lr-tb;direction:ltr;text-orientation:mixed;dominant-baseline:auto;baseline-shift:baseline;text-anchor:start;white-space:normal;shape-padding:0;clip-rule:nonzero;display:inline;overflow:visible;visibility:visible;isolation:auto;mix-blend-mode:normal;color-interpolation:sRGB;color-interpolation-filters:linearRGB;solid-color:#000000;solid-opacity:1;vector-effect:none;fill:#ffffff;fill-opacity:1;fill-rule:nonzero;stroke:none;stroke-width:0.0375485px;stroke-linecap:round;stroke-linejoin:round;stroke-miterlimit:4;stroke-dasharray:none;stroke-dashoffset:0;stroke-opacity:1;color-rendering:auto;image-rendering:auto;shape-rendering:auto;text-rendering:auto;enable-background:new"
     d="m 0.7257434,0.27486679 c -0.0599618,0 -0.10735625,0.0295725 -0.14498747,0.0706229 -0.0376303,0.0410521 -0.067323,0.0937992 -0.0966582,0.14542823 -0.0293353,0.051629 -0.0583116,0.102141 -0.0916717,0.138534 -0.03336,0.0363915 -0.0692765,0.0584495 -0.11726586,0.0584495 h -0.0187747 a 0.01877616,0.01877616 0 1 0 0,0.0375481 h 0.0187747 c 0.0599615,0 0.10735647,-0.0295725 0.14498725,-0.070623 0.0376302,-0.0410519 0.067323,-0.0937992 0.0966582,-0.14542822 0.0293353,-0.051629 0.0583116,-0.10214112 0.0916717,-0.138534 0.0333596,-0.0363915 0.0692768,-0.0584495 0.1172659,-0.0584495 h 0.0187748 a 0.01877616,0.01877616 0 1 0 0,-0.0375481 z"
     id="path14036"
     inkscape:connector-curvature="0" />
  <path
     style="color:#000000;font-style:normal;font-variant:normal;font-weight:normal;font-stretch:normal;font-size:medium;line-height:normal;font-family:sans-serif;font-variant-ligatures:normal;font-variant-position:normal;font-variant-caps:normal;font-variant-numeric:normal;font-variant-alternates:normal;font-feature-settings:normal;text-indent:0;text-align:start;text-decoration:none;text-decoration-line:none;text-decoration-style:solid;text-decoration-color:#000000;letter-spacing:normal;word-spacing:normal;text-transform:none;writing-mode:lr-tb;direction:ltr;text-orientation:mixed;dominant-baseline:auto;baseline-shift:baseline;text-anchor:start;white-space:normal;shape-padding:0;clip-rule:nonzero;display:inline;overflow:visible;visibility:visible;opacity:0.6;isolation:auto;mix-blend-mode:normal;color-interpolation:sRGB;color-interpolation-filters:linearRGB;solid-color:#000000;solid-opacity:1;vector-effect:none;fill:#ffffff;fill-opacity:1;fill-rule:nonzero;stroke:none;stroke-width:0.0375485px;stroke-linecap:round;stroke-linejoin:round;stroke-miterlimit:4;stroke-dasharray:none;stroke-dashoffset:0;stroke-opacity:1;color-rendering:auto;image-rendering:auto;shape-rendering:auto;text-rendering:auto;enable-background:accumulate"
     d="M 0.29393485,0.23731871 A 0.01877616,0.01877616 0 0 0 0.2751602,0.2560928 V 0.3311904 A 0.01877616,0.01877616 0 0 0 0.2939349,0.3499645 H 0.3690322 A 0.01877616,0.01877616 0 0 0 0.3878069,0.3311904 V 0.312415 h 0.13141994 a 0.01877616,0.01877616 0 1 0 0,-0.0375481 h -0.13142 V 0.2560928 A 0.01877616,0.01877616 0 0 0 0.36903214,0.2373187 Z m 0.0187747,0.0375481 h 0.037548 v 0.0157669 a 0.01877616,0.01877616 0 0 0 0,0.006087 v 0.0156931 h -0.037548 z M 0.6321655,0.65035189 a 0.01877616,0.01877616 0 0 0 -0.0187748,0.0187755 v 0.018774 H 0.48197094 a 0.01877616,0.01877616 0 1 0 0,0.0375481 h 0.1314199 v 0.018774 a 0.01877616,0.01877616 0 0 0 0.0187748,0.018774 h 0.0750968 a 0.01877616,0.01877616 0 0 0 0.0187748,-0.018774 v -0.0750962 a 0.01877616,0.01877616 0 0 0 -0.0187748,-0.0187756 z m 0.0187748,0.0375495 h 0.0375484 v 0.0375481 H 0.6509402 v -0.0159145 a 0.01877616,0.01877616 0 0 0 0,-0.005719 z"
     id="path14257"
     inkscape:connector-curvature="0" />
  <path
     style="color:#000000;display:inline;fill:#ffffff;stroke-width:0.0375485;stroke-linecap:round;-inkscape-stroke:none;enable-background:new"
     d="M 0.5004521,0 C 0.22427063,0 0,0.22412906 0,0.50015815 0,0.77618722 0.22427063,1.0003163 0.5004521,1.0003163 c 0.27618121,0 0.5004515,-0.22412908 0.5004515,-0.50015815 C 1.0009036,0.22412906 0.77663331,0 0.5004521,0 Z m 0,0.03754808 c 0.25590092,0 0.46290298,0.20688628 0.46290298,0.46261006 0,0.25572376 -0.20700206,0.46261002 -0.46290298,0.46261002 -0.25590102,0 -0.46290359,-0.20688626 -0.46290359,-0.46261002 0,-0.25572378 0.20700257,-0.46261006 0.46290359,-0.46261006 z"
     id="path4931-8-4" />
</svg>
