<?xml version="1.0" encoding="UTF-8" standalone="no"?>
<!-- Created with Inkscape (http://www.inkscape.org/) -->

<svg
   width="1.0009036mm"
   height="1.0000725mm"
   viewBox="0 0 1.0009036 1.0000725"
   version="1.1"
   id="svg5"
   inkscape:version="1.1.1 (3bf5ae0d25, 2021-09-20)"
   sodipodi:docname="rendering copy 2.svg"
   xmlns:inkscape="http://www.inkscape.org/namespaces/inkscape"
   xmlns:sodipodi="http://sodipodi.sourceforge.net/DTD/sodipodi-0.dtd"
   xmlns="http://www.w3.org/2000/svg"
   xmlns:svg="http://www.w3.org/2000/svg">
  <sodipodi:namedview
     id="namedview7"
     pagecolor="#505050"
     bordercolor="#eeeeee"
     borderopacity="1"
     inkscape:pageshadow="0"
     inkscape:pageopacity="0"
     inkscape:pagecheckerboard="0"
     inkscape:document-units="mm"
     showgrid="false"
     fit-margin-top="0"
     fit-margin-left="0"
     fit-margin-right="0"
     fit-margin-bottom="0"
     inkscape:zoom="128.00001"
     inkscape:cx="1.0742187"
     inkscape:cy="1.9726562"
     inkscape:window-width="1920"
     inkscape:window-height="1001"
     inkscape:window-x="-9"
     inkscape:window-y="-9"
     inkscape:window-maximized="1"
     inkscape:current-layer="svg5"
     inkscape:snap-object-midpoints="false"
     inkscape:snap-page="true"
     inkscape:snap-grids="false"
     inkscape:snap-bbox="true"
     inkscape:bbox-paths="true"
     inkscape:bbox-nodes="true" />
  <defs
     id="defs2" />
  <path
     inkscape:connector-curvature="0"
     id="path15352-4"
     d="m 0.51643532,0.42385678 c -0.004877,7.509e-5 -0.009532,0.00205 -0.0129809,0.0055 l -0.0430487,0.043049 0.0640965,0.0640965 0.043049,-0.0430486 c 0.007329,-0.007332 0.007329,-0.0192163 0,-0.0265483 l -0.0375486,-0.0375486 c -0.003593,-0.003593 -0.008487,-0.005578 -0.0135673,-0.0055 z m -0.0825775,0.0750971 -0.19324325,0.19324288 c -0.007329,0.007332 -0.007329,0.0192163 0,0.0265483 l 0.0375486,0.0375485 c 0.007332,0.007329 0.0192163,0.007329 0.0265483,0 L 0.4979543,0.56305037 Z"
     style="color:#000000;font-style:normal;font-variant:normal;font-weight:normal;font-stretch:normal;font-size:medium;line-height:normal;font-family:sans-serif;font-variant-ligatures:normal;font-variant-position:normal;font-variant-caps:normal;font-variant-numeric:normal;font-variant-alternates:normal;font-feature-settings:normal;text-indent:0;text-align:start;text-decoration:none;text-decoration-line:none;text-decoration-style:solid;text-decoration-color:#000000;letter-spacing:normal;word-spacing:normal;text-transform:none;writing-mode:lr-tb;direction:ltr;text-orientation:mixed;dominant-baseline:auto;baseline-shift:baseline;text-anchor:start;white-space:normal;shape-padding:0;clip-rule:nonzero;display:inline;overflow:visible;visibility:visible;opacity:0.7;isolation:auto;mix-blend-mode:normal;color-interpolation:sRGB;color-interpolation-filters:linearRGB;solid-color:#000000;solid-opacity:1;vector-effect:none;fill:#ffffff;fill-opacity:1;fill-rule:nonzero;stroke:none;stroke-width:0.0375484;stroke-linecap:round;stroke-linejoin:round;stroke-miterlimit:4;stroke-dasharray:none;stroke-dashoffset:0;stroke-opacity:1;marker:none;color-rendering:auto;image-rendering:auto;shape-rendering:auto;text-rendering:auto;enable-background:accumulate"
     sodipodi:nodetypes="ccccccscccccccc" />
  <path
     style="color:#000000;font-style:normal;font-variant:normal;font-weight:normal;font-stretch:normal;font-size:medium;line-height:normal;font-family:sans-serif;font-variant-ligatures:normal;font-variant-position:normal;font-variant-caps:normal;font-variant-numeric:normal;font-variant-alternates:normal;font-feature-settings:normal;text-indent:0;text-align:start;text-decoration:none;text-decoration-line:none;text-decoration-style:solid;text-decoration-color:#000000;letter-spacing:normal;word-spacing:normal;text-transform:none;writing-mode:lr-tb;direction:ltr;text-orientation:mixed;dominant-baseline:auto;baseline-shift:baseline;text-anchor:start;white-space:normal;shape-padding:0;clip-rule:nonzero;display:inline;overflow:visible;visibility:visible;isolation:auto;mix-blend-mode:normal;color-interpolation:sRGB;color-interpolation-filters:linearRGB;solid-color:#000000;solid-opacity:1;vector-effect:none;fill:#ffffff;fill-opacity:1;fill-rule:nonzero;stroke:none;stroke-width:0.0375484;stroke-linecap:round;stroke-linejoin:round;stroke-miterlimit:4;stroke-dasharray:none;stroke-dashoffset:0;stroke-opacity:1;marker:none;color-rendering:auto;image-rendering:auto;shape-rendering:auto;text-rendering:auto;enable-background:accumulate"
     d="m 0.36624114,0.23582075 a 0.01877615,0.01877615 0 0 0 -0.0184812,0.0190675 v 0.0563228 h -0.0563228 a 0.01877615,0.01877615 0 1 0 0,0.0375485 h 0.0563228 v 0.0563228 a 0.01877615,0.01877615 0 1 0 0.0375486,0 v -0.0563228 h 0.0563228 a 0.01877615,0.01877615 0 1 0 0,-0.0375485 h -0.0563228 v -0.0563228 a 0.01877615,0.01877615 0 0 0 -0.0190674,-0.0190675 z m 0.30038842,0.0187742 a 0.01877615,0.01877615 0 0 0 -0.018481,0.0190675 V 0.311211 h -0.0375486 a 0.01877615,0.01877615 0 1 0 0,0.0375485 h 0.0375486 V 0.386308 a 0.01877615,0.01877615 0 1 0 0.0375486,0 V 0.3487595 h 0.0375486 a 0.01877615,0.01877615 0 1 0 0,-0.0375485 H 0.68569716 V 0.2736626 a 0.01877615,0.01877615 0 0 0 -0.0190676,-0.0190676 z m 0,0.28161414 a 0.01877615,0.01877615 0 0 0 -0.018481,0.0190675 v 0.0563228 h -0.0563228 a 0.01877615,0.01877615 0 1 0 0,0.0375485 h 0.0563228 v 0.0563228 a 0.01877615,0.01877615 0 1 0 0.0375486,0 v -0.0563228 h 0.0563228 a 0.01877615,0.01877615 0 1 0 0,-0.0375485 h -0.0563228 v -0.0563227 a 0.01877615,0.01877615 0 0 0 -0.0190676,-0.0190676 z"
     id="path15378-5"
     inkscape:connector-curvature="0" />
  <path
     style="color:#000000;display:inline;fill:#ffffff;stroke-width:0.0375484;stroke-linecap:round;-inkscape-stroke:none;enable-background:new"
     d="M 0.50045198,0 C 0.22427112,0 0,0.22412955 0,0.50015837 0,0.77618754 0.22427112,1.0003171 0.50045198,1.0003171 0.77663286,1.0003171 1.0009036,0.77618754 1.0009036,0.50015837 1.0009036,0.22412955 0.77663286,0 0.50045198,0 Z m 0,0.03754854 c 0.2559009,0 0.46290306,0.20688615 0.46290306,0.46260983 0,0.25572402 -0.20700216,0.46261015 -0.46290306,0.46261015 -0.25590127,0 -0.46290344,-0.20688613 -0.46290344,-0.46261015 0,-0.25572368 0.20700217,-0.46260983 0.46290344,-0.46260983 z"
     id="path4931-8-6" />
</svg>
