<?xml version="1.0" encoding="UTF-8" standalone="no"?>
<!-- Created with Inkscape (http://www.inkscape.org/) -->

<svg
   width="1.0009036mm"
   height="1.0000725mm"
   viewBox="0 0 1.0009036 1.0000725"
   version="1.1"
   id="svg5"
   inkscape:version="1.1.1 (3bf5ae0d25, 2021-09-20)"
   sodipodi:docname="rendering copy 2 - Copie - Copie.svg"
   xmlns:inkscape="http://www.inkscape.org/namespaces/inkscape"
   xmlns:sodipodi="http://sodipodi.sourceforge.net/DTD/sodipodi-0.dtd"
   xmlns="http://www.w3.org/2000/svg"
   xmlns:svg="http://www.w3.org/2000/svg">
  <sodipodi:namedview
     id="namedview7"
     pagecolor="#505050"
     bordercolor="#eeeeee"
     borderopacity="1"
     inkscape:pageshadow="0"
     inkscape:pageopacity="0"
     inkscape:pagecheckerboard="0"
     inkscape:document-units="mm"
     showgrid="false"
     fit-margin-top="0"
     fit-margin-left="0"
     fit-margin-right="0"
     fit-margin-bottom="0"
     inkscape:zoom="90.509668"
     inkscape:cx="2.2262815"
     inkscape:cy="0.60214562"
     inkscape:window-width="1920"
     inkscape:window-height="1001"
     inkscape:window-x="-9"
     inkscape:window-y="-9"
     inkscape:window-maximized="1"
     inkscape:current-layer="svg5"
     inkscape:snap-object-midpoints="false"
     inkscape:snap-page="true"
     inkscape:snap-grids="false"
     inkscape:snap-bbox="true"
     inkscape:bbox-paths="true"
     inkscape:bbox-nodes="true" />
  <defs
     id="defs2" />
  <path
     style="color:#000000;fill:#ffffff;stroke-width:0.037543;stroke-linecap:round;-inkscape-stroke:none"
     d="M 0.50045175,0 C 0.224308,0 0,0.2240963 0,0.50008501 0,0.77607375 0.224308,1.00017 0.50045175,1.00017 0.77659573,1.00017 1.0009036,0.77607375 1.0009036,0.50008501 1.0009036,0.2240963 0.77659573,0 0.50045175,0 Z m 0,0.0375438 c 0.25586711,0 0.46290892,0.20685561 0.46290892,0.46254212 0,0.25568599 -0.20704181,0.46254203 -0.46290892,0.46254203 -0.25586683,0 -0.46290872,-0.20685604 -0.46290872,-0.46254203 0,-0.25568651 0.20704189,-0.46254212 0.46290872,-0.46254212 z"
     id="path4931-4" />
  <path
     style="color:#000000;font-style:normal;font-variant:normal;font-weight:normal;font-stretch:normal;font-size:medium;line-height:normal;font-family:sans-serif;font-variant-ligatures:normal;font-variant-position:normal;font-variant-caps:normal;font-variant-numeric:normal;font-variant-alternates:normal;font-feature-settings:normal;text-indent:0;text-align:start;text-decoration:none;text-decoration-line:none;text-decoration-style:solid;text-decoration-color:#000000;letter-spacing:normal;word-spacing:normal;text-transform:none;writing-mode:lr-tb;direction:ltr;text-orientation:mixed;dominant-baseline:auto;baseline-shift:baseline;text-anchor:start;white-space:normal;shape-padding:0;clip-rule:nonzero;display:inline;overflow:visible;visibility:visible;opacity:0.6;isolation:auto;mix-blend-mode:normal;color-interpolation:sRGB;color-interpolation-filters:linearRGB;solid-color:#000000;solid-opacity:1;vector-effect:none;fill:#ffffff;fill-opacity:1;fill-rule:evenodd;stroke:none;stroke-width:0.0375372px;stroke-linecap:square;stroke-linejoin:round;stroke-miterlimit:4;stroke-dasharray:none;stroke-dashoffset:0;stroke-opacity:1;color-rendering:auto;image-rendering:auto;shape-rendering:auto;text-rendering:auto;enable-background:accumulate"
     d="m 0.35018514,0.36865605 v 0.0563059 h 0.0375372 v -0.0563059 z m 0,0.0938431 v 0.0750745 h 0.0375372 V 0.4624992 Z m 0,0.11261178 v 0.0480214 l -0.0970691,0.0882711 0.0252205,0.027713 0.0977286,-0.0888578 0.0491944,-7.319e-5 v -0.0375371 h -0.0375371 v -0.0375374 z m 0.11290494,0.0375372 v 0.0375373 h 0.0750745 v -0.0375373 z m 0.11231861,0 v 0.0375373 h 0.0563057 v -0.0375373 z"
     mask="none"
     id="path12456"
     inkscape:connector-curvature="0"
     sodipodi:nodetypes="cccccccccccccccccccccccccccccc" />
  <path
     style="color:#000000;font-style:normal;font-variant:normal;font-weight:normal;font-stretch:normal;font-size:medium;line-height:normal;font-family:sans-serif;font-variant-ligatures:normal;font-variant-position:normal;font-variant-caps:normal;font-variant-numeric:normal;font-variant-alternates:normal;font-feature-settings:normal;text-indent:0;text-align:start;text-decoration:none;text-decoration-line:none;text-decoration-style:solid;text-decoration-color:#000000;letter-spacing:normal;word-spacing:normal;text-transform:none;writing-mode:lr-tb;direction:ltr;text-orientation:mixed;dominant-baseline:auto;baseline-shift:baseline;text-anchor:start;white-space:normal;shape-padding:0;clip-rule:nonzero;display:inline;overflow:visible;visibility:visible;isolation:auto;mix-blend-mode:normal;color-interpolation:sRGB;color-interpolation-filters:linearRGB;solid-color:#000000;solid-opacity:1;vector-effect:none;fill:#ffffff;fill-opacity:1;fill-rule:evenodd;stroke:none;stroke-width:0.0375372;stroke-linecap:round;stroke-linejoin:round;stroke-miterlimit:4;stroke-dasharray:none;stroke-dashoffset:0;stroke-opacity:1;color-rendering:auto;image-rendering:auto;shape-rendering:auto;text-rendering:auto;enable-background:accumulate"
     d="m 0.3689537,0.23727558 a 0.01877051,0.01877051 0 0 0 -0.0132701,0.005498 L 0.24307177,0.35538566 a 0.01877051,0.01877051 0 0 0 -0.005498,0.0132701 V 0.7440284 a 0.01877051,0.01877051 0 0 0 0.0187687,0.0187687 H 0.6317145 A 0.01877051,0.01877051 0 0 0 0.6449848,0.7572991 L 0.75759648,0.64468698 a 0.01877051,0.01877051 0 0 0 0.005498,-0.0132701 v -0.3753726 a 0.01877051,0.01877051 0 0 0 -0.0187686,-0.0187687 z m 0.007771,0.0375372 H 0.6990178 L 0.6239434,0.34988731 H 0.30165052 Z m 0.34883307,0.02654 v 0.32229265 l -0.0750743,0.0750745 V 0.37642729 Z m -0.4504471,0.0860719 H 0.61294593 V 0.72525994 H 0.27511055 Z"
     id="path12458"
     inkscape:connector-curvature="0" />
</svg>
