<?xml version="1.0" encoding="UTF-8" standalone="no"?>
<!-- Created with Inkscape (http://www.inkscape.org/) -->

<svg
   width="1.0009036mm"
   height="1.0000725mm"
   viewBox="0 0 1.0009036 1.0000725"
   version="1.1"
   id="svg5"
   inkscape:version="1.1.1 (3bf5ae0d25, 2021-09-20)"
   sodipodi:docname="rendering copy 2.svg"
   xmlns:inkscape="http://www.inkscape.org/namespaces/inkscape"
   xmlns:sodipodi="http://sodipodi.sourceforge.net/DTD/sodipodi-0.dtd"
   xmlns="http://www.w3.org/2000/svg"
   xmlns:svg="http://www.w3.org/2000/svg">
  <sodipodi:namedview
     id="namedview7"
     pagecolor="#505050"
     bordercolor="#eeeeee"
     borderopacity="1"
     inkscape:pageshadow="0"
     inkscape:pageopacity="0"
     inkscape:pagecheckerboard="0"
     inkscape:document-units="mm"
     showgrid="false"
     fit-margin-top="0"
     fit-margin-left="0"
     fit-margin-right="0"
     fit-margin-bottom="0"
     inkscape:zoom="128"
     inkscape:cx="2.5273437"
     inkscape:cy="1.2773437"
     inkscape:window-width="1920"
     inkscape:window-height="1001"
     inkscape:window-x="-9"
     inkscape:window-y="-9"
     inkscape:window-maximized="1"
     inkscape:current-layer="svg5"
     inkscape:snap-object-midpoints="false"
     inkscape:snap-page="true"
     inkscape:snap-grids="false"
     inkscape:snap-bbox="true"
     inkscape:bbox-paths="true"
     inkscape:bbox-nodes="true" />
  <defs
     id="defs2" />
  <path
     id="path22480-7"
     style="color:#000000;font-style:normal;font-variant:normal;font-weight:normal;font-stretch:normal;font-size:medium;line-height:normal;font-family:sans-serif;font-variant-ligatures:normal;font-variant-position:normal;font-variant-caps:normal;font-variant-numeric:normal;font-variant-alternates:normal;font-feature-settings:normal;text-indent:0;text-align:start;text-decoration:none;text-decoration-line:none;text-decoration-style:solid;text-decoration-color:#000000;letter-spacing:normal;word-spacing:normal;text-transform:none;writing-mode:lr-tb;direction:ltr;text-orientation:mixed;dominant-baseline:auto;baseline-shift:baseline;text-anchor:start;white-space:normal;shape-padding:0;clip-rule:nonzero;display:inline;overflow:visible;visibility:visible;isolation:auto;mix-blend-mode:normal;color-interpolation:sRGB;color-interpolation-filters:linearRGB;solid-color:#000000;solid-opacity:1;vector-effect:none;fill:#ffffff;fill-opacity:1;fill-rule:nonzero;stroke:none;stroke-width:0.0375385;stroke-linecap:round;stroke-linejoin:round;stroke-miterlimit:4;stroke-dasharray:none;stroke-dashoffset:0.5;stroke-opacity:1;marker:none;color-rendering:auto;image-rendering:auto;shape-rendering:auto;text-rendering:auto;enable-background:new"
     d="m 0.36916186,0.23768992 c -0.0059,-1.001e-5 -0.0114801,0.003 -0.01503,0.007 l -0.0506601,0.0676001 h -0.0281499 c -0.0204699,0 -0.0375399,0.0171 -0.0375399,0.0375 v 0.33785031 c 0,0.0205001 0.01707,0.0375 0.0375399,0.0375 h 0.45046185 c 0.0204699,0 0.0375399,-0.0170999 0.0375399,-0.0375 V 0.34979027 c 0,-0.0204998 -0.01707,-0.0375 -0.0375399,-0.0375 h -0.14077 l -0.0506601,-0.0676 c -0.0036,-0.005001 -0.009101,-0.007 -0.01503,-0.007 z m 0.0375399,0.0375 h 0.07508 c 0.0103609,0 0.0187701,0.007999 0.0187701,0.0188 v 0.0375 c -1.01e-6,0.0103993 -0.0084,0.0188 -0.0187701,0.0188 h -0.07508 c -0.0103711,0 -0.0187701,-0.007999 -0.0187701,-0.0188 v -0.0375 c 1.01e-6,-0.0103993 0.0084,-0.0188 0.0187701,-0.0188 z M 0.27531691,0.38779986 H 0.61316279 V 0.65056977 H 0.2753169 V 0.40656985 Z m 0.41292286,0.0375 c 0.02051,0 0.0375399,0.017 0.0375399,0.0375 0,0.0205001 -0.0170301,0.0375 -0.0375399,0.0375 -0.02051,0 -0.0375399,-0.0170001 -0.0375399,-0.0375 0,-0.0205 0.0170301,-0.0375 0.0375399,-0.0375 z m 0,0.15014995 c 0.02051,0 0.0375399,0.0170001 0.0375399,0.0375 0,0.0204998 -0.0170301,0.0375 -0.0375399,0.0375 -0.02051,0 -0.0375399,-0.0170001 -0.0375399,-0.0375 0,-0.0205 0.0170301,-0.0375 0.0375399,-0.0375 z"
     inkscape:connector-curvature="0"
     sodipodi:nodetypes="cccsssssssscccccccccccccccccccssssssssss" />
  <path
     style="color:#000000;font-style:normal;font-variant:normal;font-weight:normal;font-stretch:normal;font-size:medium;line-height:normal;font-family:sans-serif;font-variant-ligatures:normal;font-variant-position:normal;font-variant-caps:normal;font-variant-numeric:normal;font-variant-alternates:normal;font-feature-settings:normal;text-indent:0;text-align:start;text-decoration:none;text-decoration-line:none;text-decoration-style:solid;text-decoration-color:#000000;letter-spacing:normal;word-spacing:normal;text-transform:none;writing-mode:lr-tb;direction:ltr;text-orientation:mixed;dominant-baseline:auto;baseline-shift:baseline;text-anchor:start;white-space:normal;shape-padding:0;clip-rule:nonzero;display:inline;overflow:visible;visibility:visible;opacity:0.2;isolation:auto;mix-blend-mode:normal;color-interpolation:sRGB;color-interpolation-filters:linearRGB;solid-color:#000000;solid-opacity:1;vector-effect:none;fill:#ffffff;fill-opacity:1;fill-rule:nonzero;stroke:none;stroke-width:0.0375385;stroke-linecap:round;stroke-linejoin:round;stroke-miterlimit:4;stroke-dasharray:none;stroke-dashoffset:0.5;stroke-opacity:1;marker:none;color-rendering:auto;image-rendering:auto;shape-rendering:auto;text-rendering:auto;enable-background:new"
     d="m 0.33162388,0.42537984 a 0.01877112,0.01877112 0 1 0 0,0.0375 H 0.5569278 a 0.01877112,0.01877112 0 1 0 0,-0.0375 z m 0,0.0751001 a 0.01877112,0.01877112 0 1 0 0,0.0375 H 0.5569278 a 0.01877112,0.01877112 0 1 0 0,-0.0375 z m 0,0.0751001 a 0.01877112,0.01877112 0 1 0 0,0.0375 H 0.5569278 a 0.01877112,0.01877112 0 1 0 0,-0.0375 z"
     id="path22526"
     inkscape:connector-curvature="0" />
  <path
     inkscape:connector-curvature="0"
     d="m 0.66954276,0.23768992 c -0.02538,-4.3001e-4 -0.02538,0.0379 0,0.0375 h 0.0375399 c 0.02538,4.2e-4 0.02538,-0.0379 0,-0.0375 z"
     style="color:#000000;font-style:normal;font-variant:normal;font-weight:normal;font-stretch:normal;font-size:medium;line-height:normal;font-family:sans-serif;font-variant-ligatures:normal;font-variant-position:normal;font-variant-caps:normal;font-variant-numeric:normal;font-variant-alternates:normal;font-feature-settings:normal;text-indent:0;text-align:start;text-decoration:none;text-decoration-line:none;text-decoration-style:solid;text-decoration-color:#000000;letter-spacing:normal;word-spacing:normal;text-transform:none;writing-mode:lr-tb;direction:ltr;text-orientation:mixed;dominant-baseline:auto;baseline-shift:baseline;text-anchor:start;white-space:normal;shape-padding:0;clip-rule:nonzero;display:inline;overflow:visible;visibility:visible;opacity:0.8;isolation:auto;mix-blend-mode:normal;color-interpolation:sRGB;color-interpolation-filters:linearRGB;solid-color:#000000;solid-opacity:1;vector-effect:none;fill:#ffffff;fill-opacity:1;fill-rule:nonzero;stroke:none;stroke-width:0.0375385;stroke-linecap:round;stroke-linejoin:round;stroke-miterlimit:4;stroke-dasharray:none;stroke-dashoffset:0.5;stroke-opacity:1;marker:none;color-rendering:auto;image-rendering:auto;shape-rendering:auto;text-rendering:auto;enable-background:new"
     id="path22529"
     sodipodi:nodetypes="ccccc" />
  <path
     style="color:#000000;fill:#ffffff;stroke-width:0.141878;stroke-linecap:round;-inkscape-stroke:none"
     d="M 0.50045182,0 C 0.22434192,0 0,0.22421992 0,0.50017982 0,0.77613972 0.22434192,1.0000796 0.50045182,1.0000796 c 0.2761099,0 0.50045178,-0.22393988 0.50045178,-0.49989978 C 1.0009036,0.22421992 0.77656172,0 0.50045182,0 Z m 0,0.03769999 c 0.2558359,0 0.46276483,0.20683992 0.46276483,0.46248982 0,0.25564991 -0.20692893,0.46248983 -0.46276483,0.46248983 -0.25583591,0 -0.46276584,-0.20683992 -0.46276584,-0.46248983 0,-0.2556499 0.20692993,-0.46248982 0.46276584,-0.46248982 z"
     id="path4931" />
</svg>
