<?xml version="1.0" encoding="UTF-8" standalone="no"?>
<!-- Created with Inkscape (http://www.inkscape.org/) -->

<svg
   width="1.0009036mm"
   height="1.0000725mm"
   viewBox="0 0 1.0009036 1.0000725"
   version="1.1"
   id="svg5"
   inkscape:version="1.1.1 (3bf5ae0d25, 2021-09-20)"
   sodipodi:docname="rendering copy 2.svg"
   xmlns:inkscape="http://www.inkscape.org/namespaces/inkscape"
   xmlns:sodipodi="http://sodipodi.sourceforge.net/DTD/sodipodi-0.dtd"
   xmlns="http://www.w3.org/2000/svg"
   xmlns:svg="http://www.w3.org/2000/svg">
  <sodipodi:namedview
     id="namedview7"
     pagecolor="#505050"
     bordercolor="#eeeeee"
     borderopacity="1"
     inkscape:pageshadow="0"
     inkscape:pageopacity="0"
     inkscape:pagecheckerboard="0"
     inkscape:document-units="mm"
     showgrid="false"
     fit-margin-top="0"
     fit-margin-left="0"
     fit-margin-right="0"
     fit-margin-bottom="0"
     inkscape:zoom="90.509668"
     inkscape:cx="0.66843688"
     inkscape:cy="-0.32593203"
     inkscape:window-width="1920"
     inkscape:window-height="1001"
     inkscape:window-x="-9"
     inkscape:window-y="-9"
     inkscape:window-maximized="1"
     inkscape:current-layer="svg5"
     inkscape:snap-object-midpoints="false"
     inkscape:snap-page="true"
     inkscape:snap-grids="false"
     inkscape:snap-bbox="true"
     inkscape:bbox-paths="true"
     inkscape:bbox-nodes="true" />
  <defs
     id="defs2" />
  <path
     style="color:#000000;font-style:normal;font-variant:normal;font-weight:normal;font-stretch:normal;font-size:medium;line-height:normal;font-family:sans-serif;font-variant-ligatures:normal;font-variant-position:normal;font-variant-caps:normal;font-variant-numeric:normal;font-variant-alternates:normal;font-feature-settings:normal;text-indent:0;text-align:start;text-decoration:none;text-decoration-line:none;text-decoration-style:solid;text-decoration-color:#000000;letter-spacing:normal;word-spacing:normal;text-transform:none;writing-mode:lr-tb;direction:ltr;text-orientation:mixed;dominant-baseline:auto;baseline-shift:baseline;text-anchor:start;white-space:normal;shape-padding:0;clip-rule:nonzero;display:inline;overflow:visible;visibility:visible;isolation:auto;mix-blend-mode:normal;color-interpolation:sRGB;color-interpolation-filters:linearRGB;solid-color:#000000;solid-opacity:1;vector-effect:none;fill:#ffffff;fill-opacity:1;fill-rule:nonzero;stroke:none;stroke-width:0.0375385;stroke-linecap:round;stroke-linejoin:round;stroke-miterlimit:4;stroke-dasharray:none;stroke-dashoffset:0;stroke-opacity:1;marker:none;color-rendering:auto;image-rendering:auto;shape-rendering:auto;text-rendering:auto;enable-background:new"
     d="m 0.44424202,0.27648495 c -0.0116497,1.012e-5 -0.0204773,0.010519 -0.0184761,0.0219953 0.0136775,0.0778263 0.00735,0.11672336 -0.004032,0.13629707 -0.0113825,0.0195736 -0.0296896,0.0257684 -0.0548415,0.0353387 -0.0251519,0.00957 -0.0566325,0.0233958 -0.0744171,0.0596805 -0.0177847,0.0362843 -0.0221904,0.0903688 -0.007772,0.18131363 0.001445,0.009124 0.009312,0.0158413 0.0185492,0.0158367 h 0.25360496 c 0.011539,5.26e-6 0.0203508,-0.0103036 0.0185492,-0.0217018 -0.0138518,-0.0873667 -0.007754,-0.13423357 0.004325,-0.15895231 0.0120806,-0.0247188 0.0297718,-0.0319329 0.0538885,-0.0411309 0.0241166,-0.009198 0.055179,-0.0195008 0.0737571,-0.0515422 0.0185786,-0.0320414 0.0228647,-0.0798834 0.008505,-0.16159165 -0.001568,-0.00898 -0.00936,-0.0155356 -0.018476,-0.0155432 z"
     id="path14318"
     inkscape:connector-curvature="0"
     sodipodi:nodetypes="ccssccccccccccc" />
  <path
     style="color:#000000;font-style:normal;font-variant:normal;font-weight:normal;font-stretch:normal;font-size:medium;line-height:normal;font-family:sans-serif;font-variant-ligatures:normal;font-variant-position:normal;font-variant-caps:normal;font-variant-numeric:normal;font-variant-alternates:normal;font-feature-settings:normal;text-indent:0;text-align:start;text-decoration:none;text-decoration-line:none;text-decoration-style:solid;text-decoration-color:#000000;letter-spacing:normal;word-spacing:normal;text-transform:none;writing-mode:lr-tb;direction:ltr;text-orientation:mixed;dominant-baseline:auto;baseline-shift:baseline;text-anchor:start;white-space:normal;shape-padding:0;clip-rule:nonzero;display:inline;overflow:visible;visibility:visible;opacity:0.6;isolation:auto;mix-blend-mode:normal;color-interpolation:sRGB;color-interpolation-filters:linearRGB;solid-color:#000000;solid-opacity:1;vector-effect:none;fill:#ffffff;fill-opacity:1;fill-rule:nonzero;stroke:none;stroke-width:0.0375385px;stroke-linecap:round;stroke-linejoin:round;stroke-miterlimit:4;stroke-dasharray:none;stroke-dashoffset:0;stroke-opacity:1;color-rendering:auto;image-rendering:auto;shape-rendering:auto;text-rendering:auto;enable-background:accumulate"
     d="m 0.25625631,0.23872646 a 0.01877113,0.01877113 0 0 0 -0.0187692,0.0187692 v 0.075077 a 0.01877113,0.01877113 0 0 0 0.0187692,0.0187692 h 0.075077 a 0.01877113,0.01877113 0 0 0 0.0187692,-0.0187692 v -0.0750769 a 0.01877113,0.01877113 0 0 0 -0.0187692,-0.0187692 z m 0.0187692,0.0375385 h 0.0375385 v 0.0375385 h -0.0375385 z m 0.39452074,0.37538511 a 0.01877113,0.01877113 0 0 0 -0.0187693,0.0187692 v 0.075077 a 0.01877113,0.01877113 0 0 0 0.0187693,0.0187692 h 0.075077 a 0.01877113,0.01877113 0 0 0 0.0187692,-0.0187692 v -0.075077 a 0.01877113,0.01877113 0 0 0 -0.0187692,-0.0187692 z m 0.0187692,0.0375385 h 0.0375385 v 0.0375385 h -0.0375385 z"
     id="path14320"
     inkscape:connector-curvature="0" />
  <path
     style="color:#000000;fill:#ffffff;stroke-width:0.141878;stroke-linecap:round;-inkscape-stroke:none"
     d="M 0.50017478,0 C 0.22406754,0 0,0.22421949 0,0.50017478 0,0.77613008 0.22406754,1.0000725 0.50017478,1.0000725 0.77628203,1.0000725 1.0006267,0.77613008 1.0006267,0.50017478 1.0006267,0.22421949 0.77628203,0 0.50017478,0 Z m 0,0.03768628 c 0.25583254,0 0.46276562,0.20683306 0.46276562,0.4624885 0,0.25565547 -0.20693308,0.4624885 -0.46276562,0.4624885 -0.25583252,0 -0.4627656,-0.20683303 -0.4627656,-0.4624885 0,-0.25565544 0.20693308,-0.4624885 0.4627656,-0.4624885 z"
     id="path4931-8-7-7-2-7" />
</svg>
