<?xml version="1.0" encoding="UTF-8" standalone="no"?>
<svg
   width="1230"
   height="1230"
   version="1.1"
   id="svg4"
   sodipodi:docname="sp logo 25-07-2025.svg"
   xml:space="preserve"
   inkscape:version="1.4.3 (0d15f75, 2025-12-25)"
   xmlns:inkscape="http://www.inkscape.org/namespaces/inkscape"
   xmlns:sodipodi="http://sodipodi.sourceforge.net/DTD/sodipodi-0.dtd"
   xmlns:xlink="http://www.w3.org/1999/xlink"
   xmlns="http://www.w3.org/2000/svg"
   xmlns:svg="http://www.w3.org/2000/svg"><defs
     id="defs4"><linearGradient
       id="linearGradient6"
       inkscape:collect="always"><stop
         style="stop-color:#35009b;stop-opacity:1;"
         offset="0"
         id="stop6" /><stop
         style="stop-color:#000000;stop-opacity:1;"
         offset="0.57452965"
         id="stop7" /></linearGradient><linearGradient
       id="linearGradient4"
       inkscape:collect="always"><stop
         style="stop-color:#ff00b9;stop-opacity:1;"
         offset="0"
         id="stop4" /><stop
         style="stop-color:#fe0f30;stop-opacity:1;"
         offset="1"
         id="stop5" /></linearGradient><linearGradient
       inkscape:collect="always"
       xlink:href="#linearGradient4"
       id="linearGradient5"
       x1="844.37671"
       y1="587.8808"
       x2="844.37665"
       y2="358.53244"
       gradientUnits="userSpaceOnUse" /><linearGradient
       inkscape:collect="always"
       xlink:href="#linearGradient6"
       id="linearGradient7"
       x1="484.53568"
       y1="630.16113"
       x2="484.53568"
       y2="0"
       gradientUnits="userSpaceOnUse" /></defs><sodipodi:namedview
     id="namedview4"
     pagecolor="#505050"
     bordercolor="#eeeeee"
     borderopacity="1"
     inkscape:showpageshadow="0"
     inkscape:pageopacity="0"
     inkscape:pagecheckerboard="0"
     inkscape:deskcolor="#505050"
     inkscape:zoom="0.37768116"
     inkscape:cx="910.82118"
     inkscape:cy="691.05909"
     inkscape:window-width="1600"
     inkscape:window-height="930"
     inkscape:window-x="-6"
     inkscape:window-y="-6"
     inkscape:window-maximized="1"
     inkscape:current-layer="svg4" /><g
     id="g1"
     transform="translate(109.51085,293.9122)"><path
       d="m 1010.9783,192.53728 c -0.089,-21.77341 0.3495,-43.66796 -1.9829,-65.35765 -2.2934,-21.6137 -7.8998,-42.991405 -18.65116,-61.640506 C 979.7373,46.868111 964.11035,31.240726 945.43915,20.634127 926.78986,9.8828554 905.41241,4.2759657 883.79858,1.9828796 862.10889,-0.34940243 840.21466,0.0888586 818.44104,0 H 192.53726 C 170.76387,0.08893013 148.86925,-0.34947395 127.17965,1.9828796 105.56624,4.2762041 84.188171,9.8828316 65.539124,20.634102 46.868038,31.240845 31.240702,46.86792 20.634079,65.539124 9.8829269,84.188316 4.2759895,105.56596 1.9828796,127.17965 -0.34928322,148.86935 0.08878708,170.76385 0,192.53726 v 257.10105 c 0.08883476,21.7734 -0.34942627,43.66793 1.9828796,65.35766 2.2933484,21.61365 7.8998566,42.9914 18.6511514,61.6405 10.607004,18.67096 26.233866,34.29834 44.905138,44.90497 18.649292,10.75128 40.026761,16.35816 61.640501,18.65125 21.68975,2.33233 43.58402,1.89398 65.35764,1.98291 h 625.90373 c 21.77338,-0.0889 43.66803,0.34942 65.35767,-1.98291 21.6134,-2.29328 42.99145,-7.89997 61.64044,-18.65119 18.67114,-10.60675 34.29852,-26.23388 44.90509,-44.90503 10.75116,-18.64923 16.35806,-40.02685 18.65116,-61.6405 2.3322,-21.68976 1.8941,-43.58426 1.9829,-65.35766 z"
       fill="#000000"
       fill-opacity="1.0"
       fill-rule="evenodd"
       id="path1"
       style="fill:url(#linearGradient7);fill-opacity:1" /><path
       id="path2"
       style="fill:url(#linearGradient5);fill-opacity:1"
       d="m 726.98828,358.15625 v 168.22656 c 0.031,7.33063 -0.12146,14.6944 0.70117,22.03321 0.8075,7.3114 2.78186,14.59588 6.5293,21.00195 3.69672,6.41138 9.11591,11.83063 15.52734,15.52734 6.40613,3.74732 13.69062,5.72187 21.00196,6.5293 7.3388,0.82263 14.70251,0.67023 22.0332,0.70117 h 2.08203 c 20.67481,-0.0669 41.58179,0.24848 61.55078,-1.32422 19.93018,-1.56885 38.74396,-5.39233 54.26367,-13.40625 15.57605,-7.91211 27.68549,-20.02356 35.59766,-35.59961 8.01392,-15.51971 11.83936,-34.33358 13.4082,-54.26367 1.5727,-19.96893 1.25733,-40.87601 1.32422,-61.55078 v -2.08203 c -0.0309,-7.3306 0.1214,-14.69434 -0.70117,-22.0332 -0.80743,-7.31125 -2.78192,-14.59598 -6.5293,-21.00196 -3.69665,-6.41131 -9.11596,-11.83078 -15.52734,-15.52734 -6.40601,-3.74738 -13.69061,-5.72193 -21.00195,-6.5293 -7.33881,-0.82254 -14.7027,-0.67032 -22.03321,-0.70117 z m 116.67578,42.12305 c 20.70392,0 36.34284,6.225 46.91797,18.67382 10.57501,12.44889 15.86328,30.41413 15.86328,53.89649 0,48.4444 -20.92724,72.66797 -62.78125,72.66797 -20.43628,0 -35.92071,-6.24158 -46.45117,-18.72266 -10.53046,-12.41669 -15.79492,-30.39865 -15.79492,-53.94531 0,-48.38007 20.74896,-72.57031 62.24609,-72.57031 z m 0,15.05468 c -12.94,-6e-5 -22.42151,4.48816 -28.44531,13.4629 -6.0238,8.97476 -9.03711,23.65847 -9.03711,44.05273 0,11.12994 0.89288,20.55518 2.67774,28.27539 20.57006,-24.96204 41.14086,-49.92267 61.71093,-74.88477 -6.15759,-7.26986 -15.12646,-10.90631 -26.90625,-10.90625 z m 36.00782,32.03907 c -20.57007,24.38302 -41.14087,48.76733 -61.71094,73.15039 5.97912,6.69085 14.54791,10.03515 25.70312,10.03515 13.11835,0 22.75641,-4.51947 28.91406,-13.55859 6.1576,-9.03906 9.23633,-23.75616 9.23633,-44.15039 0,-9.84329 -0.71472,-18.33533 -2.14257,-25.47656 z" /><path
       d="m 961.00732,174.49251 c -0.0132,-7.9438 0.006,-17.86682 -0.51281,-28.1238 -0.52558,-10.28813 -1.64576,-21.00596 -4.08466,-31.19041 C 953.9873,104.98471 950.21704,95.330978 944.79883,86.98127 939.40485,78.613808 932.36456,71.57328 923.99713,66.179512 915.64709,60.76157 905.99365,56.990578 895.80005,54.568459 885.61542,52.12989 874.89789,51.009178 864.6095,50.483776 854.35248,49.965096 844.42981,49.983978 836.48584,49.971054 H 174.49251 c -7.9435,0.0129 -17.86701,-0.006 -28.12381,0.512745 -10.28829,0.525715 -21.00592,1.645969 -31.19036,4.084682 -10.19358,2.422287 -19.847293,6.192925 -28.197047,11.611084 -8.367485,5.39386 -15.408081,12.434143 -20.801827,20.801705 -5.417919,8.349853 -9.189129,18.00344 -11.610985,28.1971 -2.43864,10.18447 -3.559158,20.9021 -4.084632,31.19034 -0.518708,10.25702 -0.499917,20.17997 -0.512795,28.1238 -0.0081,13.09346 -0.06804,26.09143 1.023819,38.73507 1.074646,12.63375 3.389885,24.99383 7.662773,36.43172 4.234696,11.42841 10.418556,21.86164 18.281128,30.3855 7.84359,8.5524 17.305138,15.13074 27.631086,19.5592 10.3356,4.46961 21.49249,6.8079 32.98249,7.90604 11.49326,1.1098 23.38977,1.06924 35.37084,1.07776 H 314.3056 c 4.32401,-0.0436 8.17087,0.1423 11.31116,1.47574 3.13226,1.27478 5.49176,3.61068 6.67484,6.49145 1.19842,2.86286 1.19812,6.2027 -0.001,9.06555 -1.18406,2.8808 -3.54526,5.21674 -6.68265,6.49149 -3.14557,1.33344 -7.00116,1.51935 -11.34482,1.47577 h -173.053 c -12.2097,-0.0353 -24.20793,0.11728 -34.73511,1.56772 -10.571623,1.41211 -19.774245,4.02426 -27.409224,8.02649 -7.644074,3.99908 -13.753311,9.35571 -18.316979,16.22848 -4.573585,6.86002 -7.567695,15.30661 -9.176635,25.2507 -1.654053,9.85703 -1.82486,21.42276 -1.785279,32.5452 v 50.44778 c 0.01302,7.9437 -0.0059,17.86695 0.512741,28.12378 0.525811,10.28827 1.645897,21.00599 4.084683,31.19043 2.422192,10.19355 6.19297,19.84729 11.61108,28.19703 5.394028,8.36743 12.433914,15.40802 20.801735,20.80169 8.349709,5.41815 18.003368,9.18884 28.196998,11.61109 10.18486,2.43853 20.90207,3.5592 31.19045,4.08471 10.25695,0.51856 20.17994,0.49982 28.12376,0.5127 h 211.17413 c 14.33805,0.0179 28.56934,-0.0556 41.30231,-1.87781 12.76541,-1.78754 24.05634,-5.32031 33.27414,-11.40216 9.2421,-6.04889 16.41788,-14.64417 21.52032,-25.77753 5.12714,-11.10101 8.17243,-24.74048 9.73221,-40.11206 1.59268,-15.3374 1.67771,-32.41232 1.65747,-49.58041 V 304.64499 c 0.0172,-25.26853 -0.0511,-43.85092 -1.86963,-59.12492 -1.78079,-15.20052 -5.3132,-27.169 -11.29797,-37.31089 -5.95953,-10.08285 -14.32382,-18.21696 -25.14654,-24.28717 -10.83161,-6.08516 -24.04142,-9.95834 -39.88929,-11.9077 -15.90396,-2.00622 -34.34955,-2.08738 -56.97625,-2.06505 l -104.18627,2e-5 c -4.36337,0.0436 -8.22763,-0.14236 -11.37852,-1.47577 -3.14246,-1.27473 -5.50533,-3.61072 -6.69031,-6.49145 -1.20026,-2.86284 -1.20059,-6.20281 -0.002,-9.06559 1.18298,-2.88075 3.54247,-5.21676 6.67471,-6.49147 3.14031,-1.33342 6.98719,-1.51939 11.31121,-1.47574 l 504.0435,-1e-5 c 4.32379,-0.0435 8.17084,0.14224 11.3111,1.47575 3.13226,1.2748 5.49182,3.61064 6.67468,6.49149 1.19818,2.86288 1.19812,6.20264 -0.002,9.06554 -1.18518,2.88081 -3.54779,5.21667 -6.69037,6.49148 -3.151,1.3335 -7.01501,1.51929 -11.37848,1.47575 H 654.68909 c -22.84778,-0.0433 -41.71308,0.13068 -57.82465,2.44077 -16.07745,2.23692 -29.37109,6.53362 -40.23968,12.8996 -10.85895,6.36122 -19.23212,14.61836 -25.23304,24.6566 -6.02234,10.10742 -9.61731,21.89839 -11.44262,37.05749 -1.8653,15.21625 -1.9477,33.95163 -1.92725,59.48719 v 229.1372 c -0.0176,7.54376 0.0584,15.0279 0.875,21.71802 0.79578,6.7077 2.28967,12.63641 4.62824,17.4798 2.33416,4.85583 5.49395,8.63104 9.52893,11.32159 4.03485,2.70325 8.94751,4.3169 14.79681,5.14545 5.84235,0.84643 12.64417,0.89398 20.30536,0.88263 h 52.20026 c 8.58825,0.0235 16.2099,-0.0781 22.7608,-1.04718 6.55914,-0.94251 12.07757,-2.693 16.63898,-5.35456 4.56054,-2.65618 8.16778,-6.20214 10.87164,-10.62957 2.70819,-4.42255 4.49017,-9.74549 5.48999,-15.86359 1.02399,-6.09192 1.21545,-13.0401 1.29742,-20.11529 V 369.52417 c -0.0141,-8.1311 0.11646,-16.15512 1.14258,-23.25592 1.00617,-7.12561 2.88471,-13.37265 5.89972,-18.52087 3.00348,-5.15754 7.13495,-9.22998 12.38257,-12.21027 5.23614,-2.99005 11.5968,-4.87256 18.79761,-5.86545 7.17993,-1.01813 15.22729,-1.10379 23.35412,-1.08386 h 101.60565 c 20.52424,0.0752 37.76954,-0.2468 53.08179,-3.43884 15.22626,-3.09024 28.17029,-8.90955 38.20563,-17.46582 10.07025,-8.50931 17.12488,-19.68879 21.50909,-32.41643 4.42902,-12.70494 6.25446,-26.93172 7.00769,-41.01114 0.7345,-14.06865 0.56818,-27.97047 0.60559,-39.76306"
       fill="#ffffff"
       fill-opacity="1"
       fill-rule="evenodd"
       id="path3" /></g></svg>
