<?xml version="1.0" encoding="UTF-8" standalone="no"?>
<svg
   width="254.9459991455078"
   height="77.36860656738281"
   version="1.1"
   id="svg11"
   sodipodi:docname="svg button ext.svg"
   inkscape:version="1.4 (86a8ad7, 2024-10-11)"
   xmlns:inkscape="http://www.inkscape.org/namespaces/inkscape"
   xmlns:sodipodi="http://sodipodi.sourceforge.net/DTD/sodipodi-0.dtd"
   xmlns="http://www.w3.org/2000/svg"
   xmlns:svg="http://www.w3.org/2000/svg">
  <defs
     id="defs1">
    <inkscape:path-effect
       effect="fillet_chamfer"
       id="path-effect1"
       is_visible="true"
       lpeversion="1"
       nodesatellites_param="F,0,0,1,0,1.0540789,0,1 @ F,0,0,1,0,1.0013018,0,1 @ F,0,0,1,0,0,0,1 @ F,0,0,1,0,0,0,1 @ F,0,0,1,0,0,0,1 @ F,0,0,1,0,0,0,1 @ F,0,0,1,0,0,0,1 @ F,0,0,1,0,0,0,1 @ F,0,0,1,0,0,0,1 @ F,0,0,1,0,0,0,1 @ F,0,0,1,0,0,0,1 @ F,0,0,1,0,0,0,1 @ F,0,0,1,0,0,0,1 @ F,0,0,1,0,0,0,1 @ F,0,0,1,0,0,0,1 @ F,0,0,1,0,0,0,1 @ F,0,0,1,0,0,0,1"
       radius="0"
       unit="px"
       method="auto"
       mode="F"
       chamfer_steps="1"
       flexible="false"
       use_knot_distance="true"
       apply_no_radius="true"
       apply_with_radius="true"
       only_selected="false"
       hide_knots="false" />
  </defs>
  <sodipodi:namedview
     id="namedview1"
     pagecolor="#505050"
     bordercolor="#eeeeee"
     borderopacity="1"
     inkscape:showpageshadow="0"
     inkscape:pageopacity="0"
     inkscape:pagecheckerboard="0"
     inkscape:deskcolor="#505050"
     inkscape:zoom="16.663519"
     inkscape:cx="229.24329"
     inkscape:cy="53.11003"
     inkscape:window-width="1600"
     inkscape:window-height="930"
     inkscape:window-x="-6"
     inkscape:window-y="-6"
     inkscape:window-maximized="1"
     inkscape:current-layer="svg11" />
  <path
     d="m 220.25529,69.309743 c 12.4234,-2.481624 21.19492,-9.421001 26.01074,-21.2549 0.20844,-0.512201 -0.0499,-1.09609 -0.56436,-1.299041 l -0.96487,-0.380666 c -0.63335,1.534744 -1.21356,2.802997 -1.75636,3.887001 -0.5428,1.084007 -1.0482,1.983768 -1.53057,2.768345 -0.48236,0.78458 -0.94171,1.453979 -1.38853,2.056217 -0.44684,0.602245 -0.88122,1.137329 -1.31089,1.636135 -0.42971,0.498806 -0.85469,0.961338 -1.2794,1.398414 -0.42471,0.437077 -0.84905,0.848706 -1.27796,1.242001 -0.42893,0.393295 -0.86238,0.76825 -1.3064,1.130928 -0.44404,0.362667 -0.89864,0.713059 -1.37099,1.055893 -0.47234,0.342834 -0.96248,0.678104 -1.47837,1.009258 -0.51587,0.331143 -1.05754,0.658173 -1.63669,0.983357 -0.57916,0.325187 -1.19583,0.648529 -1.88252,0.972137 -0.68671,0.323616 -1.44348,0.647515 -2.32075,0.973427 -0.87727,0.325913 -1.875,0.653862 -3.06539,0.985527 -1.19043,0.331657 -2.57345,0.66703 -4.23562,1.00705 l 0.15693,0.983113 c 0.0918,0.574874 0.63113,0.959837 1.202,0.845804 z"
     fill="#ffffff"
     fill-opacity="1"
     fill-rule="evenodd"
     id="path7"
     sodipodi:nodetypes="cccssssssssssssscc"
     style="stroke-width:1.01324"
     inkscape:path-effect="#path-effect1"
     inkscape:original-d="m 219.21944,69.50484 c 13.30033,-2.355863 22.55664,-9.646139 27.41366,-22.381563 l -1.8963,-0.748141 c -0.63335,1.534744 -1.21356,2.802997 -1.75636,3.887001 -0.5428,1.084007 -1.0482,1.983768 -1.53057,2.768345 -0.48236,0.78458 -0.94171,1.453979 -1.38853,2.056217 -0.44684,0.602245 -0.88122,1.137329 -1.31089,1.636135 -0.42971,0.498806 -0.85469,0.961338 -1.2794,1.398414 -0.42471,0.437077 -0.84905,0.848706 -1.27796,1.242001 -0.42893,0.393295 -0.86238,0.76825 -1.3064,1.130928 -0.44404,0.362667 -0.89864,0.713059 -1.37099,1.055893 -0.47234,0.342834 -0.96248,0.678104 -1.47837,1.009258 -0.51587,0.331143 -1.05754,0.658173 -1.63669,0.983357 -0.57916,0.325187 -1.19583,0.648529 -1.88252,0.972137 -0.68671,0.323616 -1.44348,0.647515 -2.32075,0.973427 -0.87727,0.325913 -1.875,0.653862 -3.06539,0.985527 -1.19043,0.331657 -2.57345,0.66703 -4.23562,1.00705 z" />
</svg>
