<svg width="242.36056518554688" height="60.118038177490234" xmlns="http://www.w3.org/2000/svg">
    <path d="M 62.5915641784668 4.884404182434082 C 63.06343078613281 4.884517192840576 ,63.53528594970703 4.883909225463867 ,64.0067367553711 4.886209964752197 C 64.47819519042969 4.888507843017578 ,64.94924926757812 4.89371395111084 ,65.41885375976562 4.908284664154053 C 65.8884506225586 4.922854900360107 ,66.3565902709961 4.946792125701904 ,66.82250213623047 4.985528945922852 C 67.28840637207031 5.024269104003906 ,67.7520751953125 5.077803134918213 ,68.21318054199219 5.148136615753174 C 68.67427062988281 5.2184672355651855 ,69.13279724121094 5.305591106414795 ,69.58908081054688 5.4075093269348145 C 70.04534912109375 5.509424209594727 ,70.49937438964844 5.626131534576416 ,70.95196533203125 5.752216339111328 C 71.40454864501953 5.87830114364624 ,71.85569763183594 6.013762950897217 ,72.3064193725586 6.152115821838379 C 72.75714111328125 6.290468692779541 ,73.20743560791016 6.4317121505737305 ,73.65779876708984 6.572279453277588 L 82.49766540527344 9.333104133605957 C 82.9480972290039 9.4736967086792 ,83.39832305908203 9.614908218383789 ,83.8490219116211 9.753253936767578 C 84.29972839355469 9.891600608825684 ,84.75091552734375 10.027080535888672 ,85.20350646972656 10.153168678283691 C 85.65609741210938 10.279254913330078 ,86.11009979248047 10.395950317382812 ,86.56636810302734 10.497864723205566 C 87.02263641357422 10.599780082702637 ,87.4811782836914 10.68691635131836 ,87.94227600097656 10.757246971130371 C 88.40336608886719 10.827577590942383 ,88.86701965332031 10.881101608276367 ,89.33293151855469 10.919841766357422 C 89.79884338378906 10.958581924438477 ,90.26700592041016 10.982534408569336 ,90.73661041259766 10.99710464477539 C 91.20620727539062 11.011676788330078 ,91.67723846435547 11.016863822937012 ,92.14871215820312 11.019170761108398 C 92.62017822265625 11.021476745605469 ,93.09208679199219 11.020906448364258 ,93.56388854980469 11.020978927612305 L 148.7966766357422 11.020978927612305 C 149.2684326171875 11.020925521850586 ,149.74038696289062 11.021479606628418 ,150.21185302734375 11.019170761108398 C 150.68333435058594 11.01685905456543 ,151.15435791015625 11.011680603027344 ,151.6239471435547 10.997110366821289 C 152.09353637695312 10.982540130615234 ,152.56170654296875 10.958579063415527 ,153.0276336669922 10.919838905334473 C 153.49354553222656 10.881097793579102 ,153.9571990966797 10.827577590942383 ,154.4182891845703 10.75724983215332 C 154.87937927246094 10.686922073364258 ,155.33790588378906 10.599785804748535 ,155.794189453125 10.497867584228516 C 156.25045776367188 10.395950317382812 ,156.70448303222656 10.279247283935547 ,157.15707397460938 10.15316390991211 C 157.6096649169922 10.027080535888672 ,158.06080627441406 9.891613960266113 ,158.51153564453125 9.75326156616211 C 158.96224975585938 9.614908218383789 ,159.4125213623047 9.473669052124023 ,159.86289978027344 9.333104133605957 L 168.70277404785156 6.572279453277588 C 169.153076171875 6.431740760803223 ,169.60342407226562 6.29047155380249 ,170.0541534423828 6.152114391326904 C 170.5048828125 6.01375675201416 ,170.9560089111328 5.878308296203613 ,171.40859985351562 5.752225399017334 C 171.86119079589844 5.6261420249938965 ,172.31521606445312 5.509424209594727 ,172.77149963378906 5.407505989074707 C 173.227783203125 5.3055853843688965 ,173.68629455566406 5.218463897705078 ,174.1473846435547 5.148136615753174 C 174.6084747314453 5.0778093338012695 ,175.0721435546875 5.024278163909912 ,175.53805541992188 4.985541343688965 C 176.00396728515625 4.94680118560791 ,176.4721221923828 4.922852039337158 ,176.9417266845703 4.908281326293945 C 177.41131591796875 4.893708229064941 ,177.88235473632812 4.888510704040527 ,178.3538055419922 4.8862128257751465 C 178.8252716064453 4.883914947509766 ,179.29714965820312 4.884514331817627 ,179.7689971923828 4.884404182434082 L 197.26736450195312 4.884404182434082 C 201.7401885986328 4.989173889160156 ,206.4928741455078 4.817575454711914 ,211.0096435546875 5.398881435394287 C 215.5264434814453 5.980184555053711 ,219.80731201171875 7.314393043518066 ,223.45034790039062 9.523651123046875 C 227.0933837890625 11.73291015625 ,230.0985870361328 14.817218780517578 ,232.14178466796875 18.412796020507812 C 234.1849365234375 22.008371353149414 ,235.26608276367188 26.115215301513672 ,235.2660675048828 30.2220516204834 C 235.2660675048828 34.328887939453125 ,234.18484497070312 38.435726165771484 ,232.14169311523438 42.03130340576172 C 230.09854125976562 45.62688064575195 ,227.0934600830078 48.711204528808594 ,223.45037841796875 50.92046356201172 C 219.8072967529297 53.12970733642578 ,215.52627563476562 54.463897705078125 ,211.0095977783203 55.045223236083984 C 206.49290466308594 55.62655258178711 ,201.74057006835938 55.45502853393555 ,197.26736450195312 55.55970764160156 L 45.09320068359375 55.55970764160156 C 40.620399475097656 55.4549446105957 ,35.867698669433594 55.626548767089844 ,31.350910186767578 55.04523468017578 C 26.834129333496094 54.46392822265625 ,22.553253173828125 53.129722595214844 ,18.91021728515625 50.92046356201172 C 15.267181396484375 48.71119689941406 ,12.261974334716797 45.626888275146484 ,10.218799591064453 42.03131103515625 C 8.17563533782959 38.435733795166016 ,7.094478607177734 34.328887939453125 ,7.0944905281066895 30.2220516204834 C 7.0945143699646 26.115211486816406 ,8.175718307495117 22.008380889892578 ,10.218870162963867 18.412803649902344 C 12.262022018432617 14.81722640991211 ,15.267122268676758 11.732903480529785 ,18.910194396972656 9.523648262023926 C 22.553264617919922 7.314394474029541 ,26.834291458129883 5.980208396911621 ,31.350971221923828 5.398881435394287 C 35.86765670776367 4.817554473876953 ,40.6199951171875 4.989084720611572 ,45.093196868896484 4.884404182434082 Z M 115.51844787597656 1.9741058349609375 C 115.99027252197266 1.9741088151931763 ,116.46208953857422 1.9741058349609375 ,116.93390655517578 1.9741058349609375 C 117.40572357177734 1.9741088151931763 ,117.8775405883789 1.9741147756576538 ,118.349365234375 1.974111795425415 C 118.82118225097656 1.974111795425415 ,119.29299926757812 1.9741028547286987 ,119.76483154296875 1.97409987449646 C 120.23664855957031 1.97409987449646 ,120.70846557617188 1.9741058349609375 ,121.18028259277344 1.9741058349609375 C 121.652099609375 1.9741088151931763 ,122.1239242553711 1.9741058349609375 ,122.59574127197266 1.9741058349609375 C 123.06755828857422 1.9741028547286987 ,123.53939056396484 1.97409987449646 ,124.0112075805664 1.9741028547286987 C 124.48302459716797 1.9741058349609375 ,124.95484161376953 1.9741058349609375 ,125.4266586303711 1.9741058349609375 C 125.89848327636719 1.9741088151931763 ,126.37030029296875 1.9741088151931763 ,126.84211730957031 1.9741058349609375 L 196.16404724121094 1.9741058349609375 C 201.15069580078125 2.0908892154693604 ,206.4491729736328 1.899603009223938 ,211.48471069335938 2.5476813316345215 C 216.520263671875 3.1957626342773438 ,221.29290771484375 4.683211326599121 ,225.35438537597656 7.146223068237305 C 229.4158935546875 9.609233856201172 ,232.76625061035156 13.047811508178711 ,235.04409790039062 17.056377410888672 C 237.3219451904297 21.064943313598633 ,238.5272979736328 25.64350128173828 ,238.52725219726562 30.2220516204834 C 238.52725219726562 34.80060577392578 ,237.3218536376953 39.379150390625 ,235.04400634765625 43.387718200683594 C 232.76620483398438 47.39628601074219 ,229.4159393310547 50.834877014160156 ,225.35443115234375 53.297889709472656 C 221.2929229736328 55.760894775390625 ,216.5201416015625 57.248329162597656 ,211.4846649169922 57.89643096923828 C 206.44921875 58.54452896118164 ,201.15106201171875 58.353294372558594 ,196.16403198242188 58.47000503540039 L 46.19652557373047 58.47000503540039 C 41.20988845825195 58.353214263916016 ,35.91143035888672 58.54450988769531 ,30.875885009765625 57.89643096923828 C 25.840335845947266 57.248348236083984 ,21.067691802978516 55.760894775390625 ,17.006195068359375 53.297882080078125 C 12.944686889648438 50.834869384765625 ,9.59433364868164 47.39629364013672 ,7.316482067108154 43.387725830078125 C 5.038630962371826 39.37915802001953 ,3.833281993865967 34.800601959228516 ,3.833305835723877 30.222049713134766 C 3.833329677581787 25.643497467041016 ,5.038726329803467 21.064952850341797 ,7.316553592681885 17.056385040283203 C 9.594368934631348 13.04781723022461 ,12.944626808166504 9.609228134155273 ,17.006147384643555 7.146218299865723 C 21.067655563354492 4.683208465576172 ,25.84041976928711 3.1957805156707764 ,30.875873565673828 2.5476813316345215 C 35.91133499145508 1.8995851278305054 ,41.209476470947266 2.090820789337158 ,46.1965217590332 1.9741058349609375 Z " fill="#ffffff" fill-opacity="1.0" fill-rule="evenodd"/>
</svg>